<svg height='100px' width='100px'  fill="#000000" xmlns="http://www.w3.org/2000/svg" xmlns:xlink="http://www.w3.org/1999/xlink" version="1.1" x="0px" y="0px" viewBox="0 0 100 100" enable-background="new 0 0 100 100" xml:space="preserve"><path d="M0,0v100h100V0H0z M93.164,93.164H6.836V25.469h86.328V93.164z"></path><g><path d="M38.984,80.638h-8.444V48.815c-3.08,2.891-6.719,5.013-10.912,6.393v-7.656c2.201-0.729,4.603-2.083,7.188-4.102   c2.578-2.005,4.349-4.362,5.319-7.044h6.849V80.638z"></path></g><path d="M76.067,41.588c-2.857-3.463-6.523-5.182-11.002-5.182c-4.108,0-7.475,1.367-10.131,4.102  c-2.662,2.734-3.984,6.328-3.984,10.794c0,4.296,1.25,7.773,3.77,10.443c2.514,2.682,5.502,4.01,8.965,4.01  c3.184,0,5.847-1.224,7.976-3.697c-0.339,5.064-1.12,8.385-2.344,9.986s-2.715,2.409-4.453,2.409c-1.387,0-2.5-0.403-3.34-1.211  c-0.833-0.794-1.36-2.031-1.562-3.685l-8.171,0.885c0.6,3.659,1.96,6.394,4.082,8.229c2.129,1.836,4.916,2.747,8.354,2.747  c4.791,0,8.685-1.783,11.673-5.352c2.981-3.555,4.473-9.375,4.473-17.435C80.371,50.729,78.938,45.039,76.067,41.588z   M69.231,57.656c-1.113,1.276-2.474,1.914-4.095,1.914c-1.692,0-3.086-0.664-4.206-1.992c-1.126-1.341-1.692-3.425-1.692-6.276  c0-2.8,0.527-4.818,1.55-6.055c1.035-1.224,2.33-1.849,3.893-1.849c1.647,0,3.086,0.755,4.35,2.266  c1.25,1.498,1.875,3.607,1.875,6.341C70.905,54.492,70.352,56.367,69.231,57.656z"></path></svg>