<svg height='100px' width='100px'  fill="#000000" xmlns="http://www.w3.org/2000/svg" xmlns:xlink="http://www.w3.org/1999/xlink" version="1.1" x="0px" y="0px" viewBox="0 0 100 87.5" enable-background="new 0 0 100 87.5" xml:space="preserve"><path d="M100,87.5H0v-10c1.592-0.322,6.519-3.252,10-10c4.565-8.857,10-2.5,10-2.5c-4.321,0.381-3.271,5.117-2.5,7.5  c0.928,2.852,3.418,4.619,5,5H25c1.602-0.322,4.023-3.252,7.5-10c4.57-8.857,10-2.5,10-2.5c-4.316,0.381-3.281,5.117-2.5,7.5  c0.928,2.852,3.413,4.619,5,5h2.5c1.602-0.322,4.023-3.252,7.5-10c4.57-8.857,10-2.5,10-2.5c-4.312,0.381-3.281,5.117-2.5,7.5  c0.928,2.852,3.413,4.619,5,5H70c1.592-0.322,6.538-3.252,10-10c4.585-8.857,10-2.5,10-2.5c-4.307,0.381-3.281,5.117-2.5,7.5  c0.928,2.852,3.413,4.619,5,5h7.5V87.5z"></path><path d="M85,47.5V32.861V19.998l2.5,2.502l2.5-2.502L66.25,0L42.5,19.998L45,22.5l2.5-2.502V47.5H45c-1.587-0.381-4.072-2.148-5-5  c-0.781-2.383-1.816-7.119,2.5-7.5c0,0-5.43-6.357-10,2.5c-3.477,6.748-5.898,9.678-7.5,10h-2.5c-1.582-0.381-4.072-2.148-5-5  c-0.771-2.383-1.821-7.119,2.5-7.5c0,0-5.435-6.357-10,2.5c-3.481,6.748-8.408,9.678-10,10v15c1.592-0.322,6.519-3.252,10-10  c4.565-8.857,10-2.5,10-2.5c-4.321,0.381-3.271,5.117-2.5,7.5c0.928,2.852,3.418,4.619,5,5H25c1.602-0.322,4.023-3.252,7.5-10  c4.57-8.857,10-2.5,10-2.5c-4.316,0.381-3.281,5.117-2.5,7.5c0.928,2.852,3.413,4.619,5,5h2.5c1.602-0.322,4.023-3.252,7.5-10  c4.57-8.857,10-2.5,10-2.5c-4.312,0.381-3.281,5.117-2.5,7.5c0.928,2.852,3.413,4.619,5,5H70c1.592-0.322,6.538-3.252,10-10  c4.585-8.857,10-2.5,10-2.5c-4.307,0.381-3.281,5.117-2.5,7.5c0.928,2.852,3.413,4.619,5,5h7.5v-15H85z"></path></svg>