<?xml version="1.0" standalone="no"?>
<!DOCTYPE svg PUBLIC "-//W3C//DTD SVG 20010904//EN"
 "http://www.w3.org/TR/2001/REC-SVG-20010904/DTD/svg10.dtd">
<svg version="1.0" xmlns="http://www.w3.org/2000/svg"
 width="961.000000pt" height="1113.000000pt" viewBox="0 0 961.000000 1113.000000"
 preserveAspectRatio="xMidYMid meet">
<metadata>
Created by potrace 1.15, written by Peter Selinger 2001-2017
</metadata>
<g transform="translate(0.000000,1113.000000) scale(0.100000,-0.100000)"
fill="#000000" stroke="none">
<path d="M8475 11105 c-85 -25 -507 -168 -2130 -720 -561 -191 -1171 -398
-1355 -460 -184 -63 -360 -123 -390 -135 l-56 -21 -1714 605 c-943 332 -1723
608 -1733 611 -16 7 -17 -53 -17 -1176 l0 -1184 -503 -169 c-276 -93 -513
-176 -526 -185 -54 -35 -51 185 -51 -3433 0 -3345 0 -3353 20 -3386 11 -18 37
-40 57 -48 36 -15 41 -14 237 47 180 56 4055 1348 4352 1451 l122 42 98 -31
c209 -66 4631 -1474 4672 -1488 l42 -14 -2 3351 -3 3351 -448 143 c-247 78
-450 144 -452 146 -3 2 -6 596 -7 1319 -3 1237 -4 1316 -21 1342 -41 63 -88
74 -192 42z m-35 -1451 c0 -646 -3 -1173 -7 -1171 -5 2 -808 257 -1785 568
-978 310 -1778 566 -1778 569 0 6 3538 1209 3558 1209 9 1 12 -240 12 -1175z
m-3862 -3330 l-3 -3196 -2160 -719 c-1188 -395 -2162 -719 -2165 -719 -3 0 -4
1439 -3 3198 l3 3197 2152 717 c1184 394 2159 717 2166 717 10 1 12 -641 10
-3195z m2627 1310 c160 -48 293 -90 297 -93 5 -4 193 -673 419 -1486 225 -814
480 -1729 564 -2034 85 -305 153 -556 152 -557 -3 -3 -630 186 -636 191 -2 2
-54 189 -116 415 -62 227 -117 415 -121 419 -5 5 -297 95 -649 201 -352 106
-645 195 -651 197 -6 2 -70 -137 -149 -329 -76 -183 -141 -336 -145 -341 -5
-6 -626 175 -637 187 -2 2 95 246 216 542 120 297 371 910 556 1364 185 454
391 959 457 1123 97 238 124 297 137 293 9 -3 147 -44 306 -92z"/>
<path d="M2569 7533 c-57 -12 -214 -55 -349 -95 -235 -70 -249 -73 -340 -71
-52 1 -117 9 -145 17 -27 8 -51 13 -54 11 -9 -10 20 -110 51 -172 39 -80 132
-169 225 -215 66 -32 71 -33 183 -32 191 2 368 61 521 173 114 84 162 180 145
293 -16 105 -75 128 -237 91z"/>
<path d="M3350 7001 c-80 -31 -237 -105 -350 -163 -129 -67 -233 -114 -281
-127 -42 -11 -210 -67 -375 -124 -273 -96 -620 -206 -849 -271 -49 -14 -144
-35 -210 -46 -198 -33 -179 -23 -171 -87 3 -30 13 -67 20 -81 21 -39 84 -97
135 -122 123 -62 418 -27 511 60 24 23 29 35 28 73 0 25 2 50 6 55 9 14 99 43
304 97 95 24 278 78 405 119 236 76 440 136 464 136 7 0 13 -5 13 -12 0 -15
-362 -742 -480 -962 -97 -182 -233 -394 -455 -706 -188 -265 -411 -571 -516
-708 -104 -135 -436 -524 -545 -640 l-79 -82 45 0 c70 0 172 20 202 38 240
153 1017 1089 1423 1715 28 42 55 77 60 77 6 0 109 -77 230 -170 260 -201 300
-229 510 -347 250 -141 394 -209 569 -269 79 -27 114 -30 122 -10 14 37 -53
297 -84 327 -9 9 -125 61 -257 115 -132 54 -348 145 -480 202 -132 57 -310
133 -395 170 -85 36 -157 67 -159 69 -2 1 44 78 101 170 221 354 336 561 529
948 l199 400 6 108 7 107 -29 -1 c-16 -1 -94 -27 -174 -58z"/>
<path d="M7157 6618 c-2 -7 -107 -260 -231 -562 -125 -301 -226 -549 -224
-550 10 -8 850 -257 854 -254 5 6 -375 1360 -386 1371 -4 5 -10 2 -13 -5z"/>
<path d="M6800 1408 c0 -4 57 -100 127 -215 69 -114 128 -215 130 -223 7 -30
-385 -242 -681 -369 -357 -153 -673 -244 -1059 -305 -257 -41 -387 -51 -682
-51 -293 0 -486 17 -764 66 -338 59 -706 166 -1036 301 -169 70 -451 208 -573
282 -61 37 -127 73 -146 81 -68 29 -138 12 -166 -40 -16 -31 -17 -93 -1 -123
18 -33 238 -165 456 -272 528 -260 1079 -426 1683 -507 178 -24 230 -26 537
-27 368 -1 392 0 688 44 506 75 986 229 1465 469 87 43 182 94 212 112 30 18
89 51 131 74 l77 42 123 -203 c68 -112 126 -200 130 -196 4 4 35 88 69 187 34
99 109 319 167 488 58 169 104 310 101 312 -7 8 -988 80 -988 73z"/>
</g>
</svg>
