<svg id="svg" version="1.1" width="400" height="400" xmlns="http://www.w3.org/2000/svg" xmlns:xlink="http://www.w3.org/1999/xlink" style="display: block;"><g id="svgg"><path id="path0" d="M184.964 29.429 C 183.834 30.533,182.474 30.657,179.000 29.973 C 173.642 28.918,165.444 28.784,158.360 29.635 L 153.220 30.253 151.989 36.053 C 150.825 41.539,150.930 45.738,152.601 60.413 C 153.635 69.488,150.392 70.697,140.500 64.924 C 138.300 63.640,136.269 62.265,135.987 61.869 C 135.705 61.474,132.555 60.421,128.987 59.531 C 116.947 56.528,115.515 56.106,108.854 53.598 L 102.208 51.096 101.618 53.298 C 101.293 54.509,101.021 59.412,101.014 64.193 C 101.003 70.940,100.443 74.409,98.511 79.693 C 95.956 86.682,94.259 99.751,94.805 108.250 L 95.110 113.000 102.135 113.000 C 108.462 113.000,109.676 113.341,114.331 116.424 C 117.174 118.307,120.850 120.170,122.500 120.564 C 134.392 123.405,136.739 128.291,133.517 143.500 C 132.702 147.350,132.027 152.537,132.017 155.027 C 132.008 157.518,131.397 160.443,130.660 161.527 C 129.923 162.612,127.787 166.875,125.915 171.000 C 124.042 175.125,120.145 181.810,117.255 185.855 C 112.258 192.849,112.000 193.518,112.000 199.470 L 112.000 205.730 120.166 210.475 C 124.657 213.085,129.945 215.776,131.916 216.456 C 136.437 218.015,137.528 224.690,135.395 237.744 C 133.611 248.662,133.981 250.445,141.577 267.500 C 143.530 271.885,146.607 280.702,148.382 287.000 C 151.676 298.689,154.676 299.685,158.927 290.500 C 160.582 286.925,162.400 284.000,162.968 284.000 C 165.267 284.000,168.000 288.091,168.000 291.532 C 168.000 298.003,175.770 310.933,181.501 314.001 C 184.710 315.718,190.384 312.823,195.873 306.665 C 197.868 304.428,200.287 301.787,201.250 300.798 C 202.213 299.809,203.000 298.582,203.000 298.071 C 203.000 296.686,209.553 290.000,210.911 290.000 C 211.557 290.000,214.251 292.025,216.897 294.500 C 223.423 300.604,229.115 299.299,244.288 288.219 C 260.769 276.183,262.126 273.631,255.604 266.935 C 250.690 261.890,250.532 260.240,252.959 239.261 C 255.926 213.613,256.557 211.500,261.250 211.500 C 266.436 211.500,267.067 210.392,267.985 199.681 C 268.435 194.427,269.130 189.598,269.530 188.951 C 270.227 187.824,271.997 181.678,275.997 166.500 C 280.577 149.121,281.216 147.512,285.905 141.531 C 293.854 131.392,296.317 126.387,295.592 121.852 C 294.949 117.830,296.167 114.165,298.629 112.710 C 299.365 112.275,300.927 108.760,302.099 104.899 L 304.231 97.879 302.116 92.351 C 299.370 85.177,299.448 81.704,302.539 73.492 C 309.010 56.302,305.567 51.000,287.936 51.000 C 282.564 51.000,276.564 50.348,273.355 49.415 L 267.901 47.829 261.426 52.048 L 254.952 56.266 249.226 55.034 C 246.077 54.356,241.321 53.368,238.658 52.838 C 235.995 52.309,231.270 50.607,228.158 49.056 C 224.538 47.251,220.251 46.047,216.258 45.713 C 211.706 45.332,209.252 44.556,207.194 42.846 C 205.642 41.555,203.098 39.600,201.542 38.500 C 199.985 37.400,196.512 34.587,193.823 32.250 C 188.535 27.654,187.214 27.233,184.964 29.429 M175.459 350.067 C 174.286 351.964,175.996 352.432,177.738 350.690 C 179.297 349.132,179.300 349.000,177.773 349.000 C 176.863 349.000,175.821 349.480,175.459 350.067 M123.000 355.500 C 123.000 360.944,123.030 361.000,126.000 361.000 C 128.833 361.000,129.000 360.778,129.000 357.000 C 129.000 353.667,128.667 353.000,127.000 353.000 C 125.889 353.000,125.000 352.333,125.000 351.500 C 125.000 350.675,124.550 350.000,124.000 350.000 C 123.450 350.000,123.000 352.475,123.000 355.500 M131.000 355.338 L 131.000 360.676 135.391 360.842 C 140.257 361.026,141.462 359.690,140.367 355.327 C 139.821 353.151,139.282 352.865,136.368 353.205 C 133.646 353.523,133.000 353.253,133.000 351.799 C 133.000 350.810,132.550 350.000,132.000 350.000 C 131.450 350.000,131.000 352.402,131.000 355.338 M193.000 351.500 C 193.000 352.325,192.190 353.000,191.200 353.000 C 190.210 353.000,188.860 353.540,188.200 354.200 C 187.267 355.133,187.000 355.133,187.000 354.200 C 187.000 353.533,185.667 353.000,184.000 353.000 C 181.167 353.000,181.000 353.222,181.000 357.000 C 181.000 359.200,181.450 361.000,182.000 361.000 C 182.550 361.000,183.000 359.650,183.000 358.000 C 183.000 356.350,183.450 355.000,184.000 355.000 C 184.550 355.000,185.000 356.291,185.000 357.869 C 185.000 360.631,185.188 360.743,190.000 360.851 L 195.000 360.964 195.000 355.482 C 195.000 352.467,194.550 350.000,194.000 350.000 C 193.450 350.000,193.000 350.675,193.000 351.500 M231.000 355.500 C 231.000 358.525,231.450 361.000,232.000 361.000 C 232.550 361.000,233.000 358.525,233.000 355.500 C 233.000 352.475,232.550 350.000,232.000 350.000 C 231.450 350.000,231.000 352.475,231.000 355.500 M235.000 355.338 L 235.000 360.676 239.500 360.846 C 241.975 360.940,244.000 360.563,244.000 360.008 C 244.000 359.454,243.100 359.000,242.000 359.000 C 240.900 359.000,240.000 358.550,240.000 358.000 C 240.000 357.450,241.174 357.000,242.609 357.000 C 245.003 357.000,245.185 357.290,244.810 360.500 C 244.374 364.238,246.378 365.536,247.436 362.201 C 247.873 360.825,248.795 360.494,251.363 360.794 C 254.992 361.218,256.380 359.169,255.289 354.996 C 254.701 352.750,246.197 352.272,244.765 354.405 C 244.260 355.158,244.026 355.110,244.015 354.250 C 244.007 353.539,242.742 353.000,241.083 353.000 C 239.479 353.000,237.940 353.563,237.662 354.250 C 237.385 354.938,237.122 354.262,237.079 352.750 C 236.931 347.583,235.000 349.986,235.000 355.338 M245.000 351.000 C 245.000 351.550,245.675 352.000,246.500 352.000 C 247.325 352.000,248.000 351.550,248.000 351.000 C 248.000 350.450,247.325 350.000,246.500 350.000 C 245.675 350.000,245.000 350.450,245.000 351.000 M30.054 352.435 C 29.399 353.224,29.007 355.361,29.182 357.185 L 29.500 360.500 35.202 360.585 C 40.179 360.660,40.942 360.415,41.202 358.664 C 41.653 355.623,44.000 355.364,44.000 358.355 C 44.000 360.840,44.119 360.878,52.008 360.895 L 60.016 360.912 59.425 358.206 C 59.099 356.718,58.660 354.938,58.448 354.250 C 57.892 352.445,53.261 352.712,52.199 354.609 C 51.399 356.038,51.231 356.046,50.708 354.681 C 50.272 353.546,48.626 353.143,44.430 353.143 C 41.302 353.143,38.261 352.661,37.671 352.071 C 36.129 350.529,31.450 350.753,30.054 352.435 M60.661 352.442 C 59.606 355.190,61.156 361.000,62.943 361.000 C 64.456 361.000,65.018 356.636,64.136 351.750 C 63.896 350.422,61.232 350.952,60.661 352.442 M80.000 352.000 C 80.000 352.550,78.923 353.000,77.607 353.000 C 76.251 353.000,74.922 353.759,74.540 354.750 C 73.898 356.417,73.819 356.417,72.883 354.750 C 70.783 351.010,65.537 353.704,66.173 358.195 C 66.479 360.353,66.995 360.514,74.250 360.718 L 82.000 360.936 82.000 355.968 C 82.000 353.236,81.550 351.000,81.000 351.000 C 80.450 351.000,80.000 351.450,80.000 352.000 M87.000 356.000 L 87.000 361.000 91.000 361.000 C 94.682 361.000,95.005 360.781,95.063 358.250 L 95.127 355.500 96.085 357.895 C 96.612 359.212,96.778 361.125,96.454 362.145 C 96.027 363.491,96.368 364.000,97.698 364.000 C 99.256 364.000,103.000 356.667,103.000 353.616 C 103.000 352.076,99.996 353.200,99.968 354.750 C 99.940 356.326,99.815 356.343,98.718 354.916 C 98.011 353.996,95.826 353.271,93.507 353.187 C 91.311 353.108,89.361 352.583,89.174 352.021 C 88.254 349.262,87.000 351.557,87.000 356.000 M108.000 356.000 C 108.000 358.750,108.450 361.000,109.000 361.000 C 109.550 361.000,110.000 360.100,110.000 359.000 C 110.000 357.667,110.667 357.000,112.000 357.000 C 113.100 357.000,114.000 356.550,114.000 356.000 C 114.000 355.450,115.237 355.061,116.750 355.136 C 119.108 355.253,119.179 355.334,117.250 355.706 C 113.450 356.438,114.148 361.000,118.060 361.000 C 122.908 361.000,122.147 353.659,117.250 353.187 C 115.463 353.014,114.000 352.452,114.000 351.937 C 114.000 351.421,112.650 351.000,111.000 351.000 C 108.067 351.000,108.000 351.111,108.000 356.000 M145.000 356.000 C 145.000 359.778,145.367 361.000,146.500 361.000 C 147.421 361.000,148.000 360.064,148.000 358.573 C 148.000 357.103,148.690 355.966,149.750 355.689 C 151.417 355.254,151.417 355.226,149.750 355.116 C 147.204 354.947,147.604 352.215,150.250 351.706 C 151.643 351.437,151.071 351.220,148.750 351.136 L 145.000 351.000 145.000 356.000 M214.000 351.322 C 214.000 351.499,214.717 353.749,215.594 356.322 C 217.434 361.723,219.622 362.383,221.150 358.000 C 221.979 355.620,222.744 355.028,224.848 355.136 C 227.204 355.257,227.249 355.321,225.250 355.706 C 221.142 356.497,222.205 361.000,226.500 361.000 C 229.535 361.000,230.000 360.679,230.000 358.582 C 230.000 354.407,228.950 353.000,225.834 353.000 C 224.121 353.000,223.141 352.580,223.500 352.000 C 223.840 351.450,223.405 351.000,222.534 351.000 C 221.663 351.000,220.512 352.152,219.977 353.560 C 218.903 356.386,217.000 355.991,217.000 352.941 C 217.000 351.873,216.325 351.000,215.500 351.000 C 214.675 351.000,214.000 351.145,214.000 351.322 M111.200 355.200 C 110.267 356.133,110.000 355.867,110.000 354.000 C 110.000 352.133,110.267 351.867,111.200 352.800 C 112.133 353.733,112.133 354.267,111.200 355.200 M37.250 354.616 C 39.391 355.371,39.562 357.000,37.500 357.000 C 36.675 357.000,36.000 357.450,36.000 358.000 C 36.000 359.449,32.249 359.230,31.718 357.750 C 31.060 355.913,32.944 352.788,34.318 353.439 C 34.968 353.747,36.288 354.276,37.250 354.616 M152.390 354.427 C 151.060 357.892,152.428 360.493,155.750 360.813 C 157.576 360.989,159.000 360.661,159.000 360.063 C 159.000 359.479,158.100 359.000,157.000 359.000 C 155.900 359.000,155.000 358.550,155.000 358.000 C 155.000 357.450,156.125 357.000,157.500 357.000 C 159.333 357.000,160.000 357.533,160.000 359.000 C 160.000 360.111,160.667 361.000,161.500 361.000 C 162.500 361.000,163.000 360.000,163.000 358.000 C 163.000 356.350,163.450 355.000,164.000 355.000 C 164.550 355.000,165.000 356.350,165.000 358.000 C 165.000 360.000,165.500 361.000,166.500 361.000 C 167.506 361.000,168.000 359.993,168.000 357.941 C 168.000 356.156,168.417 355.139,169.000 355.500 C 169.550 355.840,170.000 357.216,170.000 358.559 C 170.000 359.902,170.450 361.000,171.000 361.000 C 171.550 361.000,172.000 359.200,172.000 357.000 L 172.000 353.000 166.083 353.000 C 162.286 353.000,159.986 353.448,159.662 354.250 C 159.259 355.250,159.142 355.250,159.079 354.250 C 158.969 352.503,153.068 352.660,152.390 354.427 M173.000 353.930 C 173.000 354.442,174.012 355.056,175.250 355.294 L 177.500 355.728 175.250 355.864 C 171.013 356.120,172.201 361.000,176.500 361.000 C 180.126 361.000,181.061 358.927,179.393 354.582 C 178.745 352.892,173.000 352.307,173.000 353.930 M196.390 354.427 C 195.060 357.892,196.428 360.493,199.750 360.813 C 201.576 360.989,203.000 360.661,203.000 360.063 C 203.000 359.479,202.100 359.000,201.000 359.000 C 199.900 359.000,199.000 358.550,199.000 358.000 C 199.000 357.450,200.173 357.000,201.607 357.000 C 203.573 357.000,204.065 356.611,203.607 355.418 C 203.273 354.548,203.000 353.648,203.000 353.418 C 203.000 352.256,196.863 353.193,196.390 354.427 M204.000 354.000 C 204.000 354.550,204.707 355.000,205.571 355.000 C 207.000 355.000,207.000 355.143,205.571 356.571 C 202.939 359.204,203.634 361.008,207.250 360.930 C 209.562 360.880,209.987 360.657,208.723 360.157 C 207.123 359.525,207.095 359.259,208.442 357.478 C 210.767 354.401,210.317 353.000,207.000 353.000 C 205.350 353.000,204.000 353.450,204.000 354.000 M127.000 357.000 C 127.000 358.100,126.550 359.000,126.000 359.000 C 125.450 359.000,125.000 358.100,125.000 357.000 C 125.000 355.900,125.450 355.000,126.000 355.000 C 126.550 355.000,127.000 355.900,127.000 357.000 M138.000 357.000 C 138.000 358.100,137.550 359.000,137.000 359.000 C 136.450 359.000,136.000 358.100,136.000 357.000 C 136.000 355.900,136.450 355.000,137.000 355.000 C 137.550 355.000,138.000 355.900,138.000 357.000 M193.000 357.559 C 193.000 358.352,192.550 359.000,192.000 359.000 C 191.450 359.000,191.000 358.073,191.000 356.941 C 191.000 355.809,191.450 355.160,192.000 355.500 C 192.550 355.840,193.000 356.766,193.000 357.559 M253.000 357.000 C 253.000 358.100,252.550 359.000,252.000 359.000 C 251.450 359.000,251.000 358.100,251.000 357.000 C 251.000 355.900,251.450 355.000,252.000 355.000 C 252.550 355.000,253.000 355.900,253.000 357.000 M79.000 357.500 C 79.000 358.325,78.577 359.000,78.059 359.000 C 76.798 359.000,75.895 357.438,76.694 356.639 C 77.820 355.513,79.000 355.954,79.000 357.500 M92.000 357.500 C 92.000 358.325,91.577 359.000,91.059 359.000 C 89.798 359.000,88.895 357.438,89.694 356.639 C 90.820 355.513,92.000 355.954,92.000 357.500 M29.661 367.442 C 28.960 369.267,30.014 376.000,31.000 376.000 C 31.406 376.000,31.984 374.538,32.284 372.750 C 32.584 370.962,33.141 368.712,33.522 367.750 C 34.042 366.436,33.716 366.000,32.214 366.000 C 31.114 366.000,29.965 366.649,29.661 367.442 M64.000 371.000 C 64.000 373.750,64.450 376.000,65.000 376.000 C 65.550 376.000,66.018 374.762,66.040 373.250 L 66.080 370.500 67.572 373.250 C 70.033 377.787,72.000 376.788,72.000 371.000 C 72.000 368.250,71.550 366.000,71.000 366.000 C 70.450 366.000,69.988 367.238,69.973 368.750 L 69.947 371.500 68.242 368.750 C 65.563 364.430,64.000 365.259,64.000 371.000 M103.000 370.940 C 103.000 373.723,103.450 376.000,104.000 376.000 C 104.550 376.000,105.000 375.381,105.000 374.625 C 105.000 373.869,106.380 372.974,108.068 372.636 C 113.007 371.649,111.980 366.622,106.750 366.190 L 103.000 365.879 103.000 370.940 M125.000 370.918 C 125.000 373.623,124.727 376.548,124.393 377.418 C 123.958 378.552,124.383 379.000,125.893 379.000 C 127.233 379.000,128.000 378.363,127.999 377.250 C 127.999 375.735,129.030 375.500,135.664 375.500 C 141.321 375.500,143.451 375.136,143.795 374.109 C 144.148 373.055,143.623 372.878,141.630 373.378 C 139.745 373.851,139.000 373.649,139.000 372.663 C 139.000 371.777,140.069 371.325,141.998 371.394 C 144.408 371.479,144.996 371.941,144.998 373.750 C 144.999 375.255,145.600 376.000,146.812 376.000 C 148.464 376.000,149.057 371.851,148.136 366.750 C 147.901 365.453,145.239 365.936,144.686 367.376 C 144.350 368.252,143.216 368.573,141.573 368.259 C 140.152 367.987,138.356 368.289,137.583 368.931 C 136.622 369.729,135.973 369.766,135.530 369.049 C 134.651 367.626,130.679 367.721,129.200 369.200 C 128.267 370.133,128.000 369.911,128.000 368.200 C 128.000 366.911,127.379 366.000,126.500 366.000 C 125.370 366.000,125.000 367.213,125.000 370.918 M34.000 372.057 C 34.000 376.211,35.635 377.538,36.180 373.828 C 36.653 370.615,39.000 370.287,39.000 373.435 C 39.000 376.855,48.661 377.204,49.201 373.804 C 49.600 371.289,51.418 371.398,51.820 373.960 C 52.274 376.859,54.000 376.494,54.000 373.500 C 54.000 372.125,54.450 371.000,55.000 371.000 C 55.550 371.000,56.000 372.125,56.000 373.500 C 56.000 375.099,56.563 376.000,57.560 376.000 C 58.752 376.000,59.047 375.114,58.810 372.250 L 58.500 368.500 52.750 368.200 C 48.849 367.997,47.000 368.277,47.000 369.073 C 47.000 369.893,46.625 369.936,45.750 369.216 C 45.063 368.649,42.138 368.170,39.250 368.150 L 34.000 368.115 34.000 372.057 M74.088 369.394 C 71.596 372.397,73.141 375.470,77.314 375.814 L 81.128 376.128 80.814 372.314 C 80.465 368.076,76.581 366.390,74.088 369.394 M82.000 372.000 C 82.000 375.905,82.083 376.000,85.500 376.000 C 88.917 376.000,89.000 375.905,89.000 372.000 C 89.000 367.492,87.303 366.520,86.816 370.750 C 86.427 374.136,84.615 373.986,84.184 370.531 C 83.677 366.483,82.000 367.611,82.000 372.000 M90.000 371.937 C 90.000 376.182,91.627 377.593,92.180 373.828 C 92.652 370.627,95.000 370.284,95.000 373.417 C 95.000 374.837,95.477 376.000,96.060 376.000 C 96.674 376.000,96.990 374.421,96.810 372.250 C 96.308 366.180,90.000 365.890,90.000 371.937 M107.771 369.188 C 107.153 371.042,105.000 371.349,105.000 369.583 C 105.000 368.712,105.713 368.000,106.583 368.000 C 107.454 368.000,107.989 368.534,107.771 369.188 M112.000 372.024 C 112.000 374.211,112.450 376.000,113.000 376.000 C 113.550 376.000,114.000 375.127,114.000 374.059 C 114.000 371.243,115.799 370.562,116.179 373.235 C 116.439 375.067,117.229 375.560,120.314 375.814 L 124.128 376.128 123.814 372.314 L 123.500 368.500 117.750 368.274 L 112.000 368.048 112.000 372.024 M43.808 372.075 C 43.611 372.666,43.023 373.150,42.500 373.150 C 41.977 373.150,41.389 372.666,41.192 372.075 C 40.995 371.484,41.583 371.000,42.500 371.000 C 43.417 371.000,44.005 371.484,43.808 372.075 M78.808 372.075 C 78.611 372.666,78.023 373.150,77.500 373.150 C 76.977 373.150,76.389 372.666,76.192 372.075 C 75.995 371.484,76.583 371.000,77.500 371.000 C 78.417 371.000,79.005 371.484,78.808 372.075 M121.150 372.500 C 121.150 373.022,120.666 373.611,120.075 373.808 C 119.484 374.005,119.000 373.417,119.000 372.500 C 119.000 371.583,119.484 370.995,120.075 371.192 C 120.666 371.389,121.150 371.978,121.150 372.500 " stroke="none" fill="#000000" fill-rule="evenodd"></path></g></svg>