<svg xmlns="http://www.w3.org/2000/svg" viewBox="0 0 48 48"><defs><style>.cls-1{fill:black;}</style></defs><title>Asset 962child protection</title><g id="Layer_2" data-name="Layer 2"><g id="Icons"><path class="cls-1" d="M28,29.5V14.31458a5.20257,5.20257,0,0,1,2.01465,3.39489A1.50035,1.50035,0,0,0,31.49805,19a1.54145,1.54145,0,0,0,.21093-.01465,1.50077,1.50077,0,0,0,1.27637-1.69482A8.76473,8.76473,0,0,0,24,10a8.76473,8.76473,0,0,0-8.98535,7.29053,1.5,1.5,0,0,0,2.9707.41894A5.20257,5.20257,0,0,1,20,14.31458V29.5a1.5,1.5,0,0,0,3,0V22h2v7.5a1.5,1.5,0,0,0,3,0Z"/><circle class="cls-1" cx="24" cy="4" r="4"/><path class="cls-1" d="M11.55914,25.62137a2.05956,2.05956,0,0,0-2.94848,0,2.14761,2.14761,0,0,0,0,3l3.799,3.64865a1.2506,1.2506,0,0,1,0,1.74695,1.19946,1.19946,0,0,1-1.717,0L6,29V13a3.01837,3.01837,0,0,0-3-3,3.01837,3.01837,0,0,0-3,3V30.39905a3.02662,3.02662,0,0,0,.86572,2.12341L12,44v4h9V38a6.40609,6.40609,0,0,0-1.82983-4.85132Z"/><path class="cls-1" d="M45,10a3.01837,3.01837,0,0,0-3,3V29l-4.69263,5.017a1.19946,1.19946,0,0,1-1.717,0,1.2506,1.2506,0,0,1,0-1.74695l3.799-3.64865a2.14761,2.14761,0,0,0,0-3,2.05956,2.05956,0,0,0-2.94848,0l-7.611,7.52731A6.40609,6.40609,0,0,0,27,38V48h9V44L47.13428,32.52246A3.02662,3.02662,0,0,0,48,30.39905V13A3.01837,3.01837,0,0,0,45,10Z"/></g></g></svg>