<svg id="svg" version="1.1" width="400" height="400" xmlns="http://www.w3.org/2000/svg" xmlns:xlink="http://www.w3.org/1999/xlink" style="display: block;"><g id="svgg"><path id="path0" d="M280.000 127.801 C 277.950 128.503,223.842 161.899,222.125 163.522 C 219.654 165.857,220.525 169.929,224.329 173.830 L 227.909 177.500 228.204 204.338 L 228.500 231.176 231.250 233.540 L 234.000 235.904 234.000 272.952 L 234.000 310.000 238.418 310.000 C 240.848 310.000,243.548 310.273,244.418 310.607 C 245.825 311.147,246.000 309.184,246.000 292.843 L 246.000 274.472 259.250 261.310 L 272.500 248.147 283.248 247.835 L 293.995 247.523 307.476 260.976 L 320.957 274.429 321.228 292.448 L 321.500 310.468 325.000 311.061 C 326.925 311.387,329.512 311.987,330.750 312.394 L 333.000 313.135 333.000 273.722 C 333.000 235.580,333.064 234.252,335.000 232.500 C 336.903 230.778,337.000 229.420,337.000 204.508 L 337.000 178.326 341.000 174.121 C 344.809 170.117,345.867 166.911,344.229 164.337 C 342.022 160.867,282.429 126.969,280.000 127.801 M259.061 190.069 C 277.255 192.730,312.132 190.273,324.250 185.478 C 325.882 184.833,326.000 186.167,326.000 205.320 L 326.000 225.855 323.362 227.930 C 309.965 238.468,264.552 239.407,245.096 229.549 L 240.000 226.966 240.000 206.037 L 240.000 185.108 245.496 186.999 C 248.518 188.038,254.623 189.420,259.061 190.069 M91.500 218.326 C 79.222 225.392,39.312 250.497,38.250 251.822 C 35.503 255.251,36.735 259.485,41.974 264.622 L 46.949 269.500 46.974 293.750 C 46.988 307.087,47.188 318.000,47.417 318.000 C 47.646 318.000,49.896 317.116,52.417 316.036 L 57.000 314.071 57.000 294.691 L 57.000 275.310 62.250 277.075 C 78.501 282.536,118.839 282.246,134.876 276.553 C 137.282 275.699,139.420 275.000,139.626 275.000 C 139.832 275.000,140.000 283.598,140.000 294.107 C 140.000 310.258,140.221 313.129,141.429 312.666 C 142.215 312.364,144.465 311.816,146.429 311.447 L 150.000 310.777 150.000 289.639 L 150.000 268.500 153.494 265.712 C 160.464 260.151,161.567 253.939,156.248 250.202 C 149.553 245.499,98.510 216.001,97.085 216.012 C 96.213 216.019,93.700 217.060,91.500 218.326 M256.292 245.191 C 257.679 245.430,256.721 246.846,252.042 251.469 L 246.000 257.437 246.000 249.779 L 246.000 242.121 250.250 243.502 C 252.588 244.261,255.306 245.021,256.292 245.191 M321.000 249.719 L 321.000 257.437 315.026 251.526 C 311.741 248.275,309.200 245.466,309.381 245.286 C 309.863 244.804,318.288 242.215,319.750 242.099 C 320.651 242.028,321.000 244.158,321.000 249.719 M157.000 284.500 L 157.000 292.000 160.491 292.000 C 162.410 292.000,168.725 293.804,174.523 296.009 C 192.376 302.798,201.580 302.975,218.113 296.849 L 227.000 293.555 227.000 285.825 L 227.000 278.096 222.750 279.435 C 220.412 280.172,215.463 281.946,211.751 283.379 C 200.668 287.654,195.896 287.772,185.442 284.028 C 172.348 279.338,163.975 277.000,160.272 277.000 L 157.000 277.000 157.000 284.500 M308.000 277.737 C 306.625 277.992,300.896 279.951,295.270 282.090 C 280.151 287.836,276.622 288.008,263.902 283.616 C 258.143 281.627,253.090 280.000,252.673 280.000 C 252.257 280.000,252.047 283.444,252.208 287.652 L 252.500 295.304 258.826 297.667 C 272.536 302.788,283.919 302.464,298.623 296.535 C 303.399 294.609,308.813 292.751,310.653 292.405 L 314.000 291.777 314.000 284.389 C 314.000 276.408,314.165 276.591,308.000 277.737 M371.000 283.768 C 361.658 286.970,352.914 287.105,344.750 284.173 L 339.000 282.108 339.000 290.026 L 339.000 297.944 344.675 299.594 C 352.883 301.980,363.951 301.654,372.500 298.774 L 379.500 296.416 379.792 288.708 C 379.953 284.469,379.728 281.044,379.292 281.099 C 378.856 281.153,375.125 282.354,371.000 283.768 M20.000 289.524 L 20.000 296.856 25.296 298.838 C 28.209 299.928,32.597 300.973,35.046 301.160 L 39.500 301.500 39.791 294.384 L 40.082 287.269 34.918 286.584 C 32.078 286.207,27.560 285.065,24.877 284.045 L 20.000 282.192 20.000 289.524 M56.000 322.000 C 39.786 327.548,36.907 327.856,27.839 325.013 C 24.353 323.920,21.163 323.020,20.750 323.013 C 20.337 323.006,20.000 326.173,20.000 330.051 L 20.000 337.102 23.653 338.628 C 33.845 342.887,44.480 342.203,59.412 336.329 C 73.592 330.751,80.502 330.666,94.386 335.898 C 113.543 343.117,121.948 343.199,139.399 336.334 C 153.579 330.756,160.536 330.663,174.179 335.866 C 193.230 343.132,202.095 343.208,219.412 336.255 C 232.484 331.006,242.519 331.008,255.601 336.260 C 272.910 343.210,281.771 343.131,300.833 335.861 C 314.463 330.663,321.425 330.758,335.601 336.334 C 351.208 342.473,362.333 342.973,374.772 338.095 L 379.500 336.241 379.787 328.304 L 380.075 320.367 370.287 323.665 C 357.555 327.956,356.427 327.896,339.000 322.000 C 318.301 314.997,314.145 315.158,290.000 323.897 C 279.130 327.831,275.707 327.768,263.500 323.408 C 248.820 318.165,244.173 317.024,237.500 317.024 C 230.827 317.024,226.180 318.165,211.500 323.408 C 199.293 327.768,195.870 327.831,185.000 323.897 C 159.865 314.799,155.709 314.761,131.500 323.408 C 119.293 327.768,115.870 327.831,105.000 323.897 C 80.878 315.166,76.473 314.995,56.000 322.000 M66.468 362.489 C 63.701 363.236,57.924 365.243,53.630 366.948 C 42.465 371.384,36.261 371.816,27.250 368.789 L 20.000 366.353 20.000 374.018 L 20.000 381.683 26.250 383.592 C 37.426 387.004,44.776 385.982,66.500 377.993 C 74.893 374.907,83.517 375.598,95.543 380.319 C 113.263 387.276,121.500 387.249,139.932 380.173 C 153.377 375.012,162.494 375.032,175.543 380.252 C 193.080 387.267,201.906 387.263,219.500 380.231 C 232.530 375.024,241.635 375.016,255.148 380.203 C 273.569 387.273,281.867 387.278,299.500 380.231 C 312.550 375.016,321.652 375.013,335.127 380.220 C 351.947 386.720,363.226 387.110,376.307 381.645 L 380.000 380.102 380.000 372.125 L 380.000 364.149 373.985 366.506 C 359.290 372.265,355.158 372.139,337.128 365.386 C 320.821 359.278,313.153 359.615,291.500 367.389 C 278.601 372.021,276.297 371.938,260.060 366.252 C 240.895 359.541,234.105 359.541,214.940 366.252 C 198.185 372.119,196.815 372.119,180.060 366.252 C 167.757 361.944,165.666 361.504,157.500 361.504 C 149.334 361.504,147.243 361.944,134.940 366.252 C 118.713 371.934,116.409 372.019,103.500 367.408 C 84.328 360.560,77.150 359.607,66.468 362.489 " stroke="none" fill="#000000" fill-rule="evenodd"></path></g></svg>