<svg id="svg" version="1.1" width="400" height="400" xmlns="http://www.w3.org/2000/svg" xmlns:xlink="http://www.w3.org/1999/xlink" style="display: block;"><g id="svgg"><path id="path0" d="M161.000 1.106 C 99.585 5.484,37.210 20.275,14.650 35.809 L 11.799 37.772 15.381 41.737 C 38.323 67.131,170.500 82.036,270.277 70.482 C 339.669 62.446,395.193 45.799,386.275 35.704 C 365.622 12.326,250.853 -5.301,161.000 1.106 M12.391 56.000 C 17.386 102.118,54.336 137.238,124.500 162.557 C 176.368 181.274,188.660 208.521,159.491 240.119 C 107.450 296.495,105.049 332.357,152.068 351.009 C 182.880 363.232,196.216 379.187,189.494 395.782 L 187.988 399.500 189.946 397.000 C 200.486 383.547,200.510 368.656,190.020 351.000 C 166.410 311.260,173.890 300.435,251.500 262.029 C 325.434 225.442,336.496 209.945,313.291 175.459 C 300.754 156.827,304.766 147.712,337.500 120.461 C 372.430 91.382,383.284 76.743,387.404 53.156 L 387.988 49.811 384.744 51.983 C 364.461 65.562,323.530 77.014,276.000 82.408 C 244.459 85.987,234.702 86.476,195.000 86.463 C 96.369 86.430,40.997 76.624,17.699 55.063 L 11.687 49.500 12.391 56.000 " stroke="none" fill="#000000" fill-rule="evenodd"></path></g></svg>