<svg id="svg" version="1.1" width="400" height="400" xmlns="http://www.w3.org/2000/svg" xmlns:xlink="http://www.w3.org/1999/xlink" style="display: block;"><g id="svgg"><path id="path0" d="M53.500 1.569 C 34.878 11.235,40.765 38.442,61.474 38.424 C 77.527 38.411,86.567 19.146,76.265 6.903 C 71.025 0.676,60.136 -1.875,53.500 1.569 M207.871 2.006 C 197.965 7.241,194.589 17.770,199.597 27.818 C 207.960 44.602,233.644 40.209,235.737 21.637 C 237.451 6.434,221.181 -5.027,207.871 2.006 M45.871 44.516 C 36.315 47.559,33.958 51.697,18.159 93.167 C 7.622 120.826,7.038 122.957,9.445 124.954 C 13.587 128.392,14.941 126.602,28.702 99.500 C 35.962 85.200,41.925 73.805,41.952 74.177 C 41.978 74.549,39.300 91.344,36.000 111.500 C 32.700 131.656,30.000 148.789,30.000 149.573 C 30.000 150.648,31.459 151.000,35.915 151.000 L 41.829 151.000 42.425 158.250 C 42.753 162.238,43.719 178.538,44.573 194.473 C 45.459 211.008,46.580 223.994,47.185 224.723 C 48.464 226.264,53.622 226.421,54.533 224.947 C 55.118 223.999,58.923 163.905,58.978 154.750 C 58.996 151.736,59.374 151.000,60.906 151.000 C 63.358 151.000,63.515 152.348,65.540 191.000 C 67.314 224.840,67.528 226.000,72.000 226.000 C 76.546 226.000,76.734 224.891,78.704 186.500 L 80.500 151.500 86.750 151.202 C 90.188 151.039,93.000 150.679,93.000 150.403 C 93.000 150.127,90.293 133.406,86.985 113.245 C 83.677 93.084,81.093 76.222,81.242 75.775 C 81.391 75.328,87.135 86.239,94.006 100.022 C 107.015 126.117,108.509 128.112,112.905 125.260 C 115.605 123.508,114.572 119.363,105.491 95.500 C 85.942 44.125,85.659 43.778,63.000 43.304 C 54.115 43.117,49.161 43.468,45.871 44.516 M202.500 43.921 C 188.362 47.816,186.018 51.645,171.867 93.971 C 161.980 123.544,161.744 125.061,166.907 125.827 C 170.513 126.362,171.357 124.960,183.171 98.826 L 194.500 73.766 195.176 78.133 C 196.336 85.628,196.011 129.837,194.500 170.000 C 192.319 227.993,192.105 226.000,200.500 226.000 C 207.984 226.000,207.438 228.174,212.646 177.666 C 214.735 157.407,216.552 141.207,216.684 141.666 C 217.004 142.777,225.000 218.222,225.000 220.132 C 225.000 225.180,234.759 228.134,238.345 224.171 C 240.440 221.856,240.459 214.475,238.500 164.000 C 236.898 122.719,236.673 101.339,237.659 84.212 L 238.310 72.925 249.725 98.195 C 263.190 128.000,264.196 129.404,268.800 124.800 C 272.284 121.316,251.509 60.205,243.892 51.530 C 237.629 44.397,215.522 40.333,202.500 43.921 M132.217 118.561 C 124.071 124.267,126.236 137.315,135.767 139.946 C 148.554 143.477,156.657 125.902,145.586 118.648 C 142.406 116.565,135.134 116.517,132.217 118.561 M100.564 126.695 C 99.260 130.092,114.630 149.870,121.411 153.522 C 123.391 154.588,125.278 156.300,125.603 157.325 C 126.444 159.974,126.173 188.695,125.135 207.000 C 124.167 224.077,124.549 226.000,128.913 226.000 C 133.216 226.000,133.708 224.722,136.155 207.214 C 137.401 198.297,138.681 191.000,139.000 191.000 C 139.319 191.000,140.599 198.297,141.845 207.214 C 144.292 224.722,144.784 226.000,149.087 226.000 C 153.577 226.000,153.777 224.365,152.499 198.000 C 151.248 172.196,151.706 155.931,153.702 155.266 C 160.628 152.957,179.010 130.796,177.425 126.665 C 176.146 123.331,172.813 124.998,165.852 132.451 C 155.485 143.553,155.154 143.686,138.412 143.513 C 122.072 143.343,122.521 143.536,111.691 132.055 C 105.043 125.009,101.809 123.450,100.564 126.695 M337.204 167.518 C 307.341 181.401,282.693 192.973,282.431 193.235 C 282.170 193.497,290.197 199.497,300.269 206.568 L 318.584 219.424 284.169 268.462 C 265.241 295.433,249.176 318.117,248.470 318.872 C 247.397 320.017,241.443 315.907,212.484 294.031 C 193.398 279.613,177.417 268.196,176.971 268.659 C 171.146 274.693,95.933 378.843,95.418 381.587 C 92.423 397.552,111.009 406.434,122.105 394.339 C 123.538 392.778,137.869 373.613,153.953 351.750 C 170.037 329.887,183.633 312.000,184.166 312.000 C 184.699 312.000,200.702 323.764,219.727 338.143 C 252.260 362.730,254.402 364.173,255.725 362.393 C 256.499 361.352,276.502 332.938,300.178 299.250 C 323.853 265.563,343.631 238.000,344.128 238.000 C 344.625 238.000,352.997 243.617,362.733 250.483 C 372.469 257.348,380.718 262.636,381.065 262.233 C 381.742 261.447,392.400 143.030,391.837 142.559 C 391.652 142.404,367.067 153.636,337.204 167.518 " stroke="none" fill="#000000" fill-rule="evenodd"></path></g></svg>