<svg id="svg" version="1.1" width="400" height="400" xmlns="http://www.w3.org/2000/svg" xmlns:xlink="http://www.w3.org/1999/xlink" style="display: block;"><g id="svgg"><path id="path0" d="M190.882 1.320 C 168.531 9.682,164.141 40.035,183.549 52.030 C 190.866 56.552,185.448 58.685,175.119 55.349 C 167.988 53.046,162.873 48.275,155.570 37.111 C 140.844 14.603,135.832 14.464,112.964 35.932 C 72.590 73.834,44.470 88.985,11.300 90.710 L 0.100 91.292 1.519 94.036 C 7.074 104.780,20.795 112.398,35.152 112.710 C 44.028 112.902,45.192 113.166,49.652 115.995 C 59.408 122.183,73.080 123.787,84.851 120.123 L 90.881 118.247 96.027 120.794 C 103.459 124.472,114.205 124.857,123.000 121.760 L 129.500 119.471 135.905 122.402 C 144.126 126.165,153.924 126.467,161.322 123.187 C 165.560 121.308,166.409 121.217,168.322 122.439 C 171.338 124.365,180.709 127.000,184.540 127.000 L 187.717 127.000 188.450 160.575 C 188.853 179.042,188.961 194.372,188.691 194.642 C 187.657 195.677,142.088 184.047,124.894 178.360 C 113.127 174.469,97.416 167.051,97.653 165.500 C 98.166 162.152,114.111 159.889,142.500 159.136 C 169.132 158.430,171.136 157.915,173.981 151.045 C 176.639 144.628,173.073 139.786,164.339 137.955 C 156.879 136.391,116.884 137.430,102.323 139.567 C 49.973 147.249,48.354 179.906,99.430 197.921 C 112.385 202.491,153.459 213.000,158.362 213.000 C 158.606 213.000,155.747 215.952,152.010 219.561 C 126.367 244.317,131.715 270.070,167.364 293.500 L 178.015 300.500 175.260 302.500 C 148.260 322.098,137.380 340.136,142.346 357.069 C 146.233 370.324,159.115 385.660,174.117 394.892 C 184.626 401.360,184.787 401.322,180.010 393.517 C 158.035 357.614,159.289 342.156,185.884 321.092 L 189.690 318.077 190.342 333.789 C 190.700 342.430,190.995 355.722,190.997 363.327 L 191.000 377.154 193.923 380.077 C 199.066 385.220,205.984 383.319,207.956 376.221 C 208.545 374.098,208.991 361.228,208.994 346.250 C 208.998 328.253,209.337 320.000,210.071 320.000 C 212.340 320.000,227.658 336.619,230.300 341.946 C 235.780 353.000,232.972 366.143,220.435 388.114 C 216.896 394.316,214.000 399.555,214.000 399.754 C 214.000 400.970,227.156 392.771,232.768 388.058 C 265.534 360.539,262.786 331.552,224.853 304.548 L 219.302 300.597 229.401 293.902 C 265.711 269.832,271.206 245.137,245.886 219.817 C 239.746 213.677,239.300 212.968,241.293 212.515 C 242.507 212.239,248.833 210.883,255.352 209.502 C 310.002 197.922,336.277 183.410,334.801 165.619 C 333.417 148.921,314.879 140.113,276.654 137.991 C 233.406 135.590,223.000 137.356,223.000 147.098 C 223.000 156.982,227.833 158.729,257.000 159.390 C 283.836 159.998,302.498 162.767,300.588 165.857 C 297.520 170.822,225.284 194.000,212.879 194.000 C 210.756 194.000,210.310 175.288,211.660 142.750 L 212.313 127.000 215.475 127.000 C 219.293 127.000,228.667 124.361,231.678 122.439 C 233.591 121.217,234.441 121.308,238.678 123.184 C 245.982 126.418,256.031 126.090,264.206 122.351 L 270.500 119.471 277.000 121.760 C 285.795 124.857,296.541 124.472,303.973 120.794 L 309.119 118.247 315.149 120.123 C 326.920 123.787,340.592 122.183,350.348 115.995 C 354.808 113.166,355.972 112.902,364.848 112.710 C 379.205 112.398,392.926 104.780,398.481 94.036 L 399.900 91.292 388.700 90.710 C 355.166 88.966,328.091 74.238,285.343 34.488 C 264.594 15.194,256.424 15.785,244.013 37.477 C 237.123 49.520,229.372 55.351,218.566 56.621 C 211.638 57.435,211.049 55.624,216.920 51.556 C 243.073 33.431,220.656 -9.820,190.882 1.320 M189.490 250.250 C 189.884 264.137,190.047 276.724,189.853 278.220 L 189.500 280.940 180.500 275.358 C 163.149 264.596,159.020 256.160,164.903 243.500 C 167.815 237.233,182.936 225.208,188.137 225.023 C 188.487 225.010,189.096 236.363,189.490 250.250 M218.000 229.294 C 235.023 239.342,240.040 255.830,229.234 266.213 C 225.831 269.484,211.944 279.000,210.575 279.000 C 210.259 279.000,210.000 267.045,210.000 252.433 L 210.000 225.865 212.250 226.547 C 213.488 226.921,216.075 228.158,218.000 229.294 " stroke="none" fill="#000000" fill-rule="evenodd"></path></g></svg>