<svg id="svg" version="1.1" width="400" height="400" xmlns="http://www.w3.org/2000/svg" xmlns:xlink="http://www.w3.org/1999/xlink" style="display: block;"><g id="svgg"><path id="path0" d="M194.372 51.152 C 179.890 56.095,173.015 68.991,172.270 92.613 L 171.793 107.725 166.646 104.224 C 142.115 87.536,123.000 96.039,123.000 123.640 C 123.000 126.247,122.070 128.269,119.479 131.296 C 103.971 149.414,108.578 190.050,126.132 189.978 C 155.406 189.858,166.048 135.092,138.560 126.020 C 134.901 124.812,134.866 124.750,135.549 120.649 C 137.903 106.505,142.900 104.469,156.159 112.251 C 169.799 120.256,172.551 124.839,173.421 141.000 C 174.363 158.484,175.628 171.054,179.042 196.847 C 180.669 209.138,182.000 219.600,182.000 220.097 C 182.000 220.594,179.637 221.038,176.750 221.084 L 171.500 221.168 180.500 225.562 C 185.450 227.979,208.044 236.144,230.709 243.706 L 271.917 257.454 303.209 253.069 C 336.742 248.370,333.367 249.194,379.750 234.389 L 400.000 227.925 400.000 224.463 L 400.000 221.000 300.129 221.000 L 200.258 221.000 199.554 214.750 C 199.167 211.313,196.672 199.950,194.010 189.500 C 187.872 165.407,187.003 161.010,186.584 151.913 C 183.310 80.950,183.426 78.023,189.845 70.065 C 199.154 58.523,208.396 59.855,217.916 74.112 C 223.672 82.732,223.805 83.866,219.585 88.341 C 209.406 99.134,214.765 117.008,233.895 136.072 C 269.871 171.923,304.802 149.282,283.803 103.723 C 273.286 80.906,255.685 71.252,235.997 77.501 C 234.431 77.998,233.514 76.979,230.946 71.893 C 222.708 55.573,207.194 46.775,194.372 51.152 M247.466 94.250 C 260.560 107.437,269.446 122.066,273.436 137.000 C 274.011 139.154,273.924 139.282,272.802 137.924 C 272.086 137.057,262.050 126.085,250.500 113.543 C 227.404 88.462,228.281 89.753,232.500 87.061 C 237.118 84.114,237.662 84.375,247.466 94.250 M128.345 154.812 C 124.022 179.201,122.997 180.331,123.009 160.691 C 123.022 138.900,123.476 136.481,127.879 134.749 C 129.871 133.966,131.630 133.420,131.789 133.536 C 131.949 133.651,130.399 143.225,128.345 154.812 M0.000 246.574 L 0.000 272.147 14.250 264.638 C 22.088 260.508,31.572 255.412,35.327 253.314 L 42.153 249.500 47.517 237.226 C 50.467 230.475,53.163 224.063,53.508 222.976 C 54.122 221.041,53.569 221.000,27.067 221.000 L 0.000 221.000 0.000 246.574 M61.064 237.871 L 52.675 254.742 71.878 278.821 L 91.081 302.900 109.512 291.779 L 127.944 280.658 145.722 258.666 C 155.500 246.570,164.118 235.803,164.874 234.741 C 166.125 232.981,165.725 232.280,160.405 226.904 L 154.563 221.000 112.008 221.000 L 69.453 221.000 61.064 237.871 M163.058 261.674 L 144.923 284.349 147.712 286.044 C 149.245 286.976,171.726 299.256,197.669 313.332 L 244.839 338.925 274.669 333.311 C 291.076 330.223,304.814 327.427,305.199 327.098 C 305.583 326.769,296.358 313.000,284.699 296.500 L 263.500 266.500 223.000 252.825 C 200.725 245.304,182.206 239.117,181.846 239.075 C 181.487 239.034,173.032 249.203,163.058 261.674 M378.167 244.752 C 366.564 247.933,358.406 250.637,359.167 251.049 C 359.900 251.447,368.825 254.132,379.000 257.017 C 389.175 259.901,398.063 262.476,398.750 262.738 C 399.707 263.103,400.000 260.380,400.000 251.107 C 400.000 244.448,399.663 239.039,399.250 239.088 C 398.837 239.136,389.350 241.685,378.167 244.752 M313.474 263.960 C 298.609 266.008,285.938 267.868,285.316 268.092 C 284.455 268.402,306.679 301.742,323.053 324.704 C 324.414 326.614,392.608 344.000,398.737 344.000 C 399.729 344.000,400.000 336.834,400.000 310.578 L 400.000 277.155 396.750 276.117 C 394.962 275.547,382.940 271.687,370.032 267.540 C 357.125 263.393,345.200 260.053,343.532 260.118 C 341.865 260.183,328.338 261.912,313.474 263.960 M20.750 276.240 L -0.000 286.327 -0.000 318.164 L 0.000 350.000 15.847 350.000 L 31.693 350.000 52.597 332.907 C 64.093 323.506,74.488 314.844,75.695 313.657 L 77.891 311.500 60.401 288.750 C 50.781 276.238,42.593 266.034,42.205 266.076 C 41.817 266.118,32.163 270.692,20.750 276.240 M102.483 316.078 C 64.515 341.907,68.009 338.495,73.048 344.823 L 77.170 350.000 152.085 350.000 C 211.364 350.000,226.994 349.739,226.974 348.750 C 226.953 347.754,135.633 295.000,133.930 295.000 C 133.675 295.000,119.524 304.485,102.483 316.078 M292.000 344.054 C 280.175 346.720,269.825 349.097,269.000 349.335 C 268.175 349.573,289.100 349.778,315.500 349.791 L 363.500 349.814 342.000 344.455 C 316.197 338.024,318.656 338.044,292.000 344.054 " stroke="none" fill="#000000" fill-rule="evenodd"></path></g></svg>