<svg id="svg" version="1.1" width="400" height="400" xmlns="http://www.w3.org/2000/svg" xmlns:xlink="http://www.w3.org/1999/xlink" style="display: block;"><g id="svgg"><path id="path0" d="M168.071 41.752 C 160.796 45.461,161.867 39.752,148.081 148.373 C 141.135 203.103,135.231 248.102,134.961 248.372 C 134.692 248.642,130.030 225.606,124.602 197.181 C 112.471 133.657,112.728 134.353,101.038 133.230 C 90.567 132.223,89.865 133.170,69.430 175.849 L 52.360 211.500 26.180 211.767 L 0.000 212.033 0.000 227.017 L 0.000 242.000 32.250 241.978 C 75.002 241.949,70.067 244.358,83.317 217.054 L 93.500 196.071 108.277 273.285 C 118.786 328.195,123.578 351.222,124.869 353.000 C 129.923 359.962,138.714 362.035,145.010 357.750 C 152.101 352.924,151.045 358.616,164.545 252.451 C 171.396 198.578,177.113 153.886,177.250 153.135 C 177.388 152.384,182.160 180.734,187.855 216.135 C 200.017 291.732,200.105 292.000,212.698 292.000 C 222.889 292.000,224.054 290.396,238.082 257.024 C 244.348 242.118,249.659 230.503,249.886 231.212 C 255.106 247.569,275.285 304.787,276.473 306.599 C 279.379 311.035,283.911 313.155,289.592 312.737 C 298.396 312.088,298.988 311.306,318.092 275.077 L 335.500 242.065 367.750 242.033 L 400.000 242.000 400.000 227.000 L 400.000 212.000 360.868 212.000 C 323.480 212.000,321.592 212.089,318.500 214.000 C 315.289 215.985,309.802 225.208,297.235 249.745 C 294.631 254.830,292.275 258.993,292.000 258.995 C 291.725 258.997,285.425 241.165,278.000 219.368 C 263.430 176.597,262.745 175.202,255.189 172.939 C 243.969 169.577,239.959 173.840,228.501 201.319 C 223.551 213.189,219.232 222.586,218.904 222.201 C 218.576 221.815,211.921 183.037,204.115 136.027 C 194.342 77.166,189.374 49.612,188.158 47.530 C 184.091 40.567,175.334 38.048,168.071 41.752 " stroke="none" fill="#000000" fill-rule="evenodd"></path></g></svg>