<svg id="svg" version="1.1" width="400" height="400" xmlns="http://www.w3.org/2000/svg" xmlns:xlink="http://www.w3.org/1999/xlink" style="display: block;"><g id="svgg"><path id="path0" d="M217.500 64.654 C 191.650 86.424,170.383 104.533,170.241 104.896 C 170.098 105.259,172.235 107.777,174.991 110.491 L 180.000 115.425 185.000 110.500 L 190.000 105.575 190.000 160.404 L 190.000 215.233 183.667 214.830 C 161.322 213.407,147.415 175.414,165.938 166.399 L 170.256 164.297 166.824 161.680 C 152.395 150.673,140.712 155.344,128.913 176.837 C 111.205 209.095,105.195 215.564,93.615 214.826 C 71.318 213.407,57.445 175.399,75.938 166.399 L 80.256 164.297 76.824 161.680 C 62.564 150.803,51.538 155.002,39.225 176.000 C 28.906 193.598,16.749 206.764,5.621 212.394 L 0.000 215.238 0.000 245.187 L 0.000 275.135 2.250 274.474 C 13.325 271.219,29.645 254.188,40.554 234.500 C 50.513 216.527,62.303 211.917,74.927 221.062 L 79.161 224.129 74.831 226.315 C 60.588 233.502,67.226 263.932,85.016 273.008 C 99.821 280.561,109.355 273.163,127.552 240.000 C 140.581 216.257,151.003 210.976,164.927 221.062 L 169.161 224.129 164.831 226.315 C 150.551 233.521,157.180 263.909,175.016 273.008 C 189.821 280.561,199.355 273.163,217.552 240.000 C 230.581 216.257,241.003 210.976,254.927 221.062 L 259.161 224.129 254.831 226.315 C 240.455 233.569,247.189 263.914,265.215 273.110 C 281.253 281.291,303.056 266.079,320.554 234.500 C 330.513 216.527,342.303 211.917,354.927 221.062 L 359.161 224.129 354.831 226.315 C 340.551 233.521,347.180 263.909,365.016 273.008 C 368.419 274.744,370.916 275.000,384.460 275.000 L 400.000 275.000 400.000 245.000 L 400.000 215.000 370.000 215.000 L 340.000 215.000 340.000 160.288 L 340.000 105.575 345.013 110.513 L 350.026 115.450 355.263 110.174 C 359.830 105.574,360.297 104.745,358.916 103.699 C 358.045 103.040,336.760 85.175,311.616 64.000 C 286.472 42.825,265.585 25.404,265.200 25.286 C 264.815 25.168,243.350 42.884,217.500 64.654 M55.072 277.734 C 49.747 280.357,45.555 285.163,39.359 295.752 C 28.927 313.579,16.820 326.728,5.621 332.394 L 0.000 335.238 0.000 355.119 L 0.000 375.000 200.000 375.000 L 400.000 375.000 400.000 355.067 L 400.000 335.135 383.714 334.817 L 367.427 334.500 362.464 330.954 C 345.943 319.154,342.130 293.119,355.938 286.399 L 360.256 284.297 356.824 281.680 C 342.573 270.809,331.520 274.969,319.338 295.788 C 304.293 321.499,287.658 335.721,273.671 334.830 C 251.322 333.407,237.412 295.415,255.938 286.399 L 260.256 284.297 256.824 281.680 C 246.633 273.906,236.822 274.245,228.408 282.659 C 225.243 285.824,222.865 289.621,212.542 308.000 C 200.682 329.114,193.821 335.476,183.615 334.826 C 161.318 333.407,147.445 295.399,165.938 286.399 L 170.256 284.297 166.824 281.680 C 156.633 273.906,146.822 274.245,138.408 282.659 C 135.248 285.818,132.982 289.435,122.531 308.000 C 107.931 333.934,98.282 340.018,84.388 332.049 C 66.251 321.647,61.085 291.087,76.598 285.968 C 79.975 284.853,80.056 284.719,78.430 282.923 C 73.104 277.037,61.652 274.493,55.072 277.734 " stroke="none" fill="#000000" fill-rule="evenodd"></path></g></svg>