<svg id="svg" version="1.1" width="400" height="400" xmlns="http://www.w3.org/2000/svg" xmlns:xlink="http://www.w3.org/1999/xlink" style="display: block;"><g id="svgg"><path id="path0" d="M178.219 22.500 C 193.106 51.869,196.000 58.926,196.000 65.854 C 196.000 75.282,206.442 91.535,209.262 86.496 C 213.188 79.481,209.508 66.434,202.153 61.294 C 198.883 59.009,197.219 56.496,193.023 47.500 C 187.612 35.902,172.973 8.927,169.896 4.884 C 168.898 3.573,172.644 11.500,178.219 22.500 M206.063 21.234 C 206.029 21.638,208.207 29.751,210.905 39.263 C 218.410 65.726,219.722 73.264,217.597 77.718 C 212.666 88.059,215.763 113.000,221.978 113.000 C 226.076 113.000,227.166 91.344,223.604 80.676 C 222.287 76.729,220.451 69.757,219.525 65.182 C 217.382 54.600,206.305 18.435,206.063 21.234 M165.887 46.500 C 183.246 72.684,191.773 86.253,195.129 93.029 C 199.033 100.914,207.469 110.123,213.779 113.386 L 217.000 115.051 217.000 112.204 C 217.000 102.890,209.526 92.105,199.545 87.015 C 193.336 83.849,192.071 82.655,186.822 75.000 C 172.131 53.577,164.862 43.270,162.490 40.500 C 161.077 38.850,162.606 41.550,165.887 46.500 M224.102 46.513 C 224.046 47.071,225.360 53.821,227.023 61.513 C 234.582 96.494,235.143 103.932,230.879 112.594 C 227.924 118.597,227.781 119.425,228.177 128.216 C 228.656 138.865,233.096 151.334,235.125 147.731 C 240.253 138.622,241.384 123.973,238.056 109.787 C 236.986 105.229,235.389 96.655,234.506 90.733 C 233.062 81.052,224.353 44.034,224.102 46.513 M50.500 54.050 C 51.600 55.391,58.149 62.791,65.053 70.494 C 97.328 106.506,100.569 111.081,101.194 121.504 C 101.934 133.864,108.817 144.957,120.909 153.280 L 125.319 156.315 124.714 149.842 C 123.656 138.512,114.984 121.634,107.484 116.307 C 106.084 115.313,101.396 109.962,97.067 104.415 C 92.737 98.868,85.920 90.768,81.918 86.415 C 72.903 76.611,47.765 50.715,50.500 54.050 M3.954 59.674 C 49.464 93.538,64.715 106.352,67.797 113.312 C 71.951 122.690,79.619 129.036,90.806 132.352 C 95.771 133.824,96.081 133.815,95.643 132.213 C 95.385 131.271,94.905 128.892,94.575 126.927 C 93.023 117.672,83.704 109.050,72.827 106.803 C 68.086 105.824,65.658 104.471,59.276 99.251 C 43.444 86.304,14.289 65.182,4.500 59.568 C 1.537 57.869,1.530 57.870,3.954 59.674 M174.329 76.919 C 189.620 100.200,199.694 116.566,204.320 125.641 C 209.570 135.940,216.476 143.766,223.965 147.902 L 228.315 150.305 227.703 145.138 C 226.393 134.083,218.712 123.685,208.314 118.890 L 202.128 116.038 188.903 96.269 C 175.627 76.423,168.273 66.000,167.547 66.000 C 167.333 66.000,170.384 70.913,174.329 76.919 M96.777 87.750 C 113.553 109.065,122.548 121.187,129.043 131.230 L 135.009 140.456 134.377 146.628 C 133.125 158.849,140.600 174.661,152.000 183.902 L 157.500 188.361 157.832 182.930 C 158.543 171.279,152.832 156.599,143.594 146.335 C 140.705 143.126,135.491 136.225,132.006 131.000 C 122.875 117.310,88.274 74.000,86.468 74.000 C 86.186 74.000,90.825 80.188,96.777 87.750 M241.117 76.000 C 241.053 76.825,242.135 85.085,243.522 94.355 C 247.389 120.196,248.360 137.958,246.046 140.500 C 238.992 148.249,236.827 168.367,241.854 179.449 L 244.099 184.397 246.055 181.449 C 252.132 172.284,254.148 159.150,251.683 144.794 C 250.805 139.682,249.624 130.087,249.059 123.470 C 247.866 109.499,241.480 71.331,241.117 76.000 M177.785 100.000 C 180.484 104.125,187.321 115.150,192.978 124.500 C 198.635 133.850,204.514 143.323,206.043 145.551 C 207.571 147.779,209.910 152.279,211.240 155.551 C 215.871 166.944,223.281 176.405,231.914 181.945 C 238.176 185.963,238.373 185.887,237.573 179.750 C 235.820 166.301,226.244 153.812,214.835 150.095 C 211.635 149.052,210.003 147.105,201.939 134.701 C 186.566 111.055,178.193 98.656,175.469 95.500 C 174.044 93.850,175.087 95.875,177.785 100.000 M123.257 100.250 C 152.008 140.786,168.392 168.073,166.937 173.000 C 163.151 185.828,169.564 204.564,182.000 217.000 L 188.500 223.500 189.134 218.500 C 190.914 204.450,185.698 188.134,175.069 174.500 C 172.496 171.200,168.464 164.999,166.108 160.719 C 160.178 149.944,147.806 131.652,132.649 111.250 C 120.271 94.587,114.188 87.463,123.257 100.250 M255.252 97.500 C 255.263 99.700,255.468 100.482,255.707 99.238 C 255.946 97.994,255.937 96.194,255.687 95.238 C 255.437 94.282,255.241 95.300,255.252 97.500 M256.130 104.500 C 256.072 106.150,256.689 114.925,257.500 124.000 C 258.311 133.075,258.981 147.416,258.988 155.868 L 259.000 171.236 255.856 174.817 C 247.555 184.272,245.090 203.727,250.543 216.748 L 252.114 220.500 255.591 215.000 C 263.441 202.580,264.464 188.461,260.877 142.000 C 259.708 126.859,256.292 99.871,256.130 104.500 M16.000 103.994 C 17.433 104.956,25.466 109.829,60.000 130.686 C 68.525 135.834,77.457 141.671,79.849 143.656 C 90.396 152.408,101.848 157.567,113.504 158.816 C 121.982 159.724,121.992 159.677,114.989 151.724 C 106.207 141.750,95.412 136.748,83.500 137.135 C 75.384 137.399,77.703 138.433,49.339 121.906 C 32.325 111.993,10.234 100.124,16.000 103.994 M151.222 116.250 C 161.308 131.879,184.548 172.015,190.508 184.097 L 198.161 199.612 196.541 207.453 C 194.299 218.309,195.757 227.502,201.619 239.476 C 204.538 245.437,214.896 258.570,216.548 258.404 C 218.054 258.253,219.202 248.199,218.641 240.073 L 218.128 232.647 221.001 237.678 C 223.560 242.159,223.872 243.650,223.851 251.294 C 223.813 264.753,223.003 264.000,237.508 264.000 C 251.980 264.000,252.342 263.739,246.713 257.353 C 244.360 254.684,241.863 251.188,241.164 249.585 L 239.893 246.670 243.858 250.253 C 246.039 252.223,248.801 254.358,249.996 254.998 C 251.191 255.638,252.812 257.700,253.598 259.580 C 255.519 264.177,258.443 264.306,257.452 259.750 C 256.278 254.347,249.450 236.061,245.085 226.628 C 241.167 218.162,241.094 217.832,243.490 219.401 L 246.000 221.046 246.000 216.180 C 246.000 204.101,238.110 190.980,226.500 183.750 C 223.160 181.671,221.601 179.429,217.052 170.161 C 214.055 164.057,211.465 159.202,211.296 159.371 C 211.126 159.540,213.271 164.520,216.063 170.438 C 224.566 188.464,221.442 185.866,207.506 163.322 C 195.865 144.490,179.223 119.256,177.907 118.443 C 177.392 118.124,179.828 122.282,183.321 127.682 C 186.813 133.082,193.432 144.025,198.029 152.000 C 202.627 159.975,208.376 169.620,210.804 173.432 C 213.233 177.245,216.707 183.889,218.524 188.197 C 223.044 198.914,226.186 204.030,231.763 209.757 C 235.795 213.897,239.000 218.697,239.000 220.598 C 239.000 220.875,237.497 219.955,235.659 218.554 C 233.822 217.152,230.566 215.399,228.424 214.657 C 225.050 213.489,224.012 212.320,220.648 205.905 C 207.394 180.622,184.402 140.000,183.347 140.000 C 183.082 140.000,185.660 145.287,189.074 151.750 C 195.971 164.801,195.761 165.233,188.106 153.750 C 180.716 142.666,181.030 144.187,188.725 156.750 C 192.346 162.662,198.672 173.575,202.782 181.000 C 206.893 188.425,212.196 197.875,214.567 202.000 C 222.351 215.542,228.244 232.189,226.621 236.051 L 225.257 239.294 222.722 234.897 C 221.328 232.479,215.925 222.850,210.714 213.500 C 205.504 204.150,199.455 193.350,197.272 189.500 C 195.089 185.650,190.250 177.105,186.520 170.511 C 179.572 158.232,151.211 114.000,150.284 114.000 C 150.001 114.000,150.423 115.013,151.222 116.250 M269.320 123.000 C 269.320 126.575,269.502 128.037,269.723 126.250 C 269.945 124.463,269.945 121.537,269.723 119.750 C 269.502 117.963,269.320 119.425,269.320 123.000 M270.629 153.500 C 270.893 166.818,270.618 183.478,270.012 190.931 L 268.921 204.362 265.031 208.582 C 255.449 218.978,252.347 233.890,256.157 251.250 C 257.492 257.335,258.008 257.237,262.851 249.986 C 267.706 242.715,270.639 235.178,271.882 226.774 C 273.020 219.089,272.408 149.756,271.100 138.000 C 270.378 131.514,270.266 135.187,270.629 153.500 M39.000 131.315 C 39.000 131.587,41.587 133.263,44.750 135.041 C 47.913 136.819,58.825 143.535,69.000 149.965 C 79.175 156.396,90.875 163.641,95.000 166.065 C 99.125 168.489,105.643 173.097,109.485 176.304 C 120.769 185.725,137.929 192.912,149.307 192.983 L 152.113 193.000 150.307 189.842 C 143.134 177.302,128.142 168.601,113.247 168.334 C 102.647 168.145,103.738 168.635,74.123 150.736 C 57.234 140.528,39.000 130.446,39.000 131.315 M282.123 172.500 C 281.799 217.821,279.299 235.506,272.184 242.811 C 265.418 249.757,258.676 263.804,262.651 262.670 C 263.668 262.381,267.765 261.840,271.757 261.470 C 280.301 260.676,279.652 261.980,280.450 244.000 C 280.755 237.125,281.433 228.800,281.957 225.500 C 283.373 216.575,284.266 169.710,283.196 160.500 C 282.367 153.366,282.251 154.664,282.123 172.500 M55.031 155.300 C 55.323 155.627,60.901 159.111,67.427 163.041 C 73.953 166.971,86.990 175.224,96.396 181.382 C 105.803 187.540,117.325 194.943,122.000 197.832 C 126.675 200.722,133.487 205.654,137.137 208.793 C 149.518 219.438,161.949 225.223,175.400 226.601 L 182.301 227.307 179.944 223.114 C 172.401 209.694,157.235 200.691,141.276 200.160 L 131.051 199.819 115.776 190.572 C 107.374 185.486,94.200 177.502,86.500 172.829 C 73.317 164.829,53.865 153.994,55.031 155.300 M293.991 165.344 C 293.987 168.180,293.709 172.776,293.375 175.558 L 292.767 180.616 303.633 182.919 C 421.906 207.977,386.503 265.964,247.362 275.087 C 132.322 282.630,32.042 242.631,76.966 207.121 L 81.908 203.215 73.883 198.108 C 64.124 191.896,65.581 191.835,58.379 198.750 C 42.115 214.366,38.884 226.613,43.440 255.378 C 47.592 281.590,60.415 316.662,72.006 333.508 C 133.352 422.672,310.718 421.951,369.376 332.300 C 391.923 297.841,406.076 235.943,396.086 215.489 C 384.477 191.722,349.711 172.696,295.750 160.580 C 294.260 160.246,293.999 160.952,293.991 165.344 M77.000 183.313 C 77.000 183.565,80.263 185.692,84.250 188.039 C 101.440 198.155,155.055 234.349,161.013 239.859 C 174.118 251.980,187.176 258.810,202.246 261.425 C 212.256 263.162,212.052 263.343,207.889 256.424 C 199.165 241.926,184.194 232.967,167.186 232.066 C 154.915 231.416,157.671 232.744,125.500 211.977 C 104.354 198.327,77.000 182.160,77.000 183.313 M101.362 214.230 C 102.386 214.928,110.612 220.450,119.640 226.500 C 128.669 232.550,143.902 243.044,153.492 249.820 C 167.083 259.423,171.520 262.069,173.613 261.820 C 177.130 261.401,115.341 220.234,102.000 214.107 C 99.887 213.137,99.788 213.156,101.362 214.230 M118.500 241.746 C 121.134 244.357,141.258 257.081,142.237 256.754 C 142.851 256.550,138.661 253.443,132.926 249.849 C 121.931 242.959,116.838 240.099,118.500 241.746 " stroke="none" fill="#000000" fill-rule="evenodd"></path></g></svg>