<svg id="svg" version="1.1" width="400" height="400" xmlns="http://www.w3.org/2000/svg" xmlns:xlink="http://www.w3.org/1999/xlink" style="display: block;"><g id="svgg"><path id="path0" d="M192.000 64.000 L 192.000 128.000 188.628 128.000 C 155.520 128.000,115.823 160.846,104.934 197.250 C 103.023 203.639,102.755 204.000,99.908 204.000 C 93.299 204.000,88.000 209.318,88.000 215.950 L 88.000 219.000 200.500 219.000 L 313.000 219.000 313.000 216.450 C 313.000 210.199,306.081 204.083,298.939 204.022 C 296.691 204.003,296.214 203.358,295.041 198.750 C 285.887 162.810,250.287 132.159,213.295 128.369 L 207.000 127.724 207.011 100.112 L 207.021 72.500 220.383 68.114 C 237.291 62.565,242.232 62.676,265.000 69.116 C 280.883 73.608,294.416 74.922,302.250 72.731 L 305.000 71.962 305.000 41.864 L 305.000 11.767 302.750 12.469 C 295.835 14.627,284.242 14.235,273.876 11.492 C 268.169 9.983,259.450 7.683,254.500 6.383 C 240.871 2.803,227.059 3.491,213.124 8.444 C 207.033 10.610,207.000 10.591,207.000 5.000 L 207.000 0.000 199.500 0.000 L 192.000 0.000 192.000 64.000 M31.000 317.000 L 31.000 400.000 88.500 400.000 L 146.000 400.000 146.000 385.000 L 146.000 370.000 199.000 370.000 L 252.000 370.000 252.000 385.000 L 252.000 400.000 310.500 400.000 L 369.000 400.000 369.000 317.000 L 369.000 234.000 200.000 234.000 L 31.000 234.000 31.000 317.000 " stroke="none" fill="#000000" fill-rule="evenodd"></path></g></svg>