<svg id="svg" version="1.1" width="400" height="400" xmlns="http://www.w3.org/2000/svg" xmlns:xlink="http://www.w3.org/1999/xlink" style="display: block;"><g id="svgg"><path id="path0" d="M181.500 6.683 C 62.890 8.946,-5.758 30.312,8.569 60.505 C 31.290 108.385,354.354 110.978,390.514 63.571 C 413.680 33.198,348.962 10.889,226.413 7.003 C 209.961 6.482,196.050 6.140,195.500 6.245 C 194.950 6.349,188.650 6.546,181.500 6.683 M238.000 25.032 C 298.559 27.754,346.507 35.676,368.033 46.516 C 377.374 51.220,377.904 52.136,373.119 55.302 C 327.678 85.374,110.852 88.943,38.961 60.803 C 23.477 54.742,22.260 51.909,32.849 46.576 C 64.469 30.653,153.963 21.254,238.000 25.032 M352.500 103.161 C 290.199 123.532,133.642 124.725,57.000 105.415 C 40.894 101.357,40.862 101.355,37.328 104.394 C 30.555 110.220,34.197 117.568,45.500 120.880 C 120.294 142.794,288.602 142.234,359.000 119.836 C 369.906 116.367,373.192 110.039,367.200 104.046 C 363.624 100.470,361.181 100.323,352.500 103.161 M50.712 145.012 C 45.775 148.895,46.764 157.819,52.366 159.949 C 83.152 171.654,198.488 178.006,270.398 171.958 C 319.092 167.863,328.027 165.212,325.609 155.580 C 323.734 148.108,323.726 148.107,291.000 151.886 C 217.580 160.363,125.854 157.716,68.000 145.449 C 54.080 142.497,53.914 142.493,50.712 145.012 M44.020 179.284 C 38.648 182.002,37.553 188.707,41.790 192.944 C 53.688 204.842,165.793 214.933,242.500 211.010 C 280.596 209.062,282.038 208.671,281.968 200.295 C 281.899 192.023,278.591 190.666,262.314 192.230 C 244.548 193.936,157.218 193.921,138.000 192.207 C 102.166 189.012,77.103 185.342,57.941 180.485 C 46.577 177.604,47.229 177.661,44.020 179.284 M51.159 219.601 C 45.760 223.383,46.458 232.050,52.359 234.495 C 70.944 242.194,139.283 249.000,198.007 249.000 L 229.091 249.000 231.545 246.545 C 233.240 244.851,234.000 242.979,234.000 240.500 C 234.000 238.021,233.240 236.149,231.545 234.455 L 229.091 232.000 205.295 231.986 C 153.452 231.956,103.215 227.703,69.000 220.449 C 55.401 217.565,54.150 217.506,51.159 219.601 M72.357 259.970 C 66.809 262.265,65.268 269.995,69.513 274.240 C 74.556 279.283,123.944 284.750,181.080 286.590 C 206.127 287.397,208.894 286.515,208.968 277.705 C 209.030 270.296,206.331 269.002,190.795 268.990 C 157.319 268.966,99.457 264.157,76.500 259.490 C 75.400 259.267,73.536 259.483,72.357 259.970 M106.913 303.282 C 102.569 306.618,101.858 312.561,105.323 316.589 C 107.993 319.693,117.646 320.927,155.000 322.937 C 202.495 325.494,209.000 324.564,209.000 315.220 C 209.000 306.891,207.974 306.601,175.670 305.810 C 160.177 305.430,139.646 304.418,130.046 303.560 C 109.408 301.716,108.960 301.710,106.913 303.282 M154.645 345.627 C 151.207 349.066,151.114 353.858,154.412 357.694 L 156.825 360.500 188.054 360.792 C 222.827 361.116,222.942 361.095,224.512 353.947 C 226.534 344.740,224.844 344.267,187.395 343.555 L 157.291 342.982 154.645 345.627 M192.455 379.455 C 187.988 383.921,189.556 391.081,195.548 393.585 C 209.769 399.526,225.327 389.173,216.077 379.923 C 211.912 375.759,196.457 375.452,192.455 379.455 " stroke="none" fill="#000000" fill-rule="evenodd"></path></g></svg>