<svg id="svg" version="1.1" width="400" height="400" xmlns="http://www.w3.org/2000/svg" xmlns:xlink="http://www.w3.org/1999/xlink" style="display: block;"><g id="svgg"><path id="path0" d="M95.217 1.449 C 83.833 4.206,57.535 22.091,59.213 25.935 C 59.371 26.297,66.606 33.210,75.292 41.297 L 91.084 56.000 150.334 56.000 L 209.585 56.000 225.292 41.424 C 243.347 24.670,242.771 25.994,235.159 18.733 C 213.529 -1.898,190.505 -5.425,165.373 8.045 C 151.498 15.482,150.300 15.488,135.687 8.187 C 118.912 -0.194,108.893 -1.862,95.217 1.449 M75.098 83.039 C 49.153 109.767,35.726 143.757,35.608 183.000 C 35.454 234.669,47.055 248.000,92.172 248.000 L 110.245 248.000 116.392 242.250 C 135.825 224.072,167.021 213.397,206.753 211.329 L 219.006 210.691 220.045 206.596 C 225.839 183.757,236.818 160.982,251.296 141.768 L 257.290 133.813 255.014 128.156 C 248.836 112.802,238.092 96.261,226.240 83.856 L 218.735 76.000 150.333 76.000 L 81.931 76.000 75.098 83.039 M155.184 116.680 C 155.458 119.002,156.169 119.513,160.500 120.501 C 169.578 122.572,177.827 129.191,179.466 135.720 C 180.354 139.260,179.575 139.690,171.000 140.398 L 163.500 141.017 161.500 137.853 C 160.400 136.113,158.473 134.019,157.217 133.201 L 154.934 131.712 155.217 143.403 L 155.500 155.093 163.590 157.806 C 191.824 167.273,189.620 199.052,160.250 205.964 L 155.000 207.199 155.000 212.600 L 155.000 218.000 150.000 218.000 L 145.000 218.000 145.000 212.628 L 145.000 207.256 140.750 206.597 C 130.083 204.945,120.584 197.285,117.432 187.795 C 115.429 181.763,114.797 182.283,125.154 181.443 C 133.455 180.769,133.810 180.826,134.480 182.937 C 135.316 185.569,140.535 191.681,143.137 193.073 C 144.908 194.021,145.000 193.452,145.000 181.504 C 145.000 170.417,144.794 168.871,143.250 168.374 C 110.360 157.782,109.725 126.758,142.250 119.570 C 144.348 119.106,145.000 118.373,145.000 116.481 C 145.000 112.500,154.713 112.690,155.184 116.680 M304.657 138.250 C 284.392 158.540,281.109 172.533,295.463 177.435 C 307.653 181.598,318.000 158.852,318.000 127.894 C 318.000 125.559,315.031 127.864,304.657 138.250 M265.707 136.186 C 251.122 167.201,257.396 201.305,276.524 194.992 C 286.942 191.554,286.510 178.981,275.441 163.469 C 267.804 152.767,265.093 142.146,268.028 134.426 C 269.891 129.527,268.255 130.767,265.707 136.186 M141.314 135.950 C 134.745 139.956,133.959 147.001,139.535 151.896 C 144.732 156.460,145.000 156.097,145.000 144.500 C 145.000 138.725,144.887 134.002,144.750 134.004 C 144.613 134.006,143.066 134.882,141.314 135.950 M249.631 167.750 C 235.832 195.026,239.996 226.979,257.350 226.996 C 270.034 227.009,271.648 212.094,260.638 196.626 C 252.082 184.606,249.038 174.067,251.818 166.091 C 253.403 161.546,252.375 162.325,249.631 167.750 M338.221 173.076 C 332.687 179.373,327.412 181.203,312.465 182.012 C 291.723 183.133,283.268 188.768,286.142 199.555 C 290.379 215.455,313.704 208.943,331.304 186.945 C 340.058 176.003,345.844 164.404,338.221 173.076 M155.000 185.393 C 155.000 198.133,155.167 198.415,160.701 195.040 C 168.781 190.114,167.501 175.000,159.005 175.000 C 158.542 175.000,157.452 174.727,156.582 174.393 C 155.195 173.861,155.000 175.220,155.000 185.393 M232.476 201.271 C 219.909 228.720,223.864 259.273,239.984 259.273 C 254.703 259.273,255.639 245.228,242.196 226.086 C 235.833 217.025,233.175 208.134,234.759 201.211 C 236.252 194.685,235.482 194.705,232.476 201.271 M323.205 203.937 C 318.744 209.970,309.768 213.113,294.813 213.879 C 273.213 214.985,263.512 223.781,271.709 234.829 C 281.455 247.964,307.814 233.639,323.458 206.705 C 326.613 201.272,326.455 199.541,323.205 203.937 M196.500 227.538 C 129.629 234.866,101.188 264.679,115.448 312.500 C 134.656 376.917,210.942 415.175,277.737 393.890 C 358.173 368.258,394.805 273.450,336.171 242.657 C 332.146 240.543,328.747 238.968,328.618 239.157 C 328.489 239.346,326.722 241.864,324.691 244.752 C 320.114 251.265,319.900 250.416,327.030 254.015 C 374.830 278.144,315.139 311.939,230.500 308.668 C 139.390 305.146,102.835 268.227,169.475 247.035 C 179.698 243.785,205.066 239.000,212.079 239.000 L 216.000 239.000 216.000 232.500 L 216.000 226.000 212.250 226.111 C 210.188 226.172,203.100 226.814,196.500 227.538 M307.626 234.813 C 302.671 242.186,295.311 245.003,278.491 245.968 C 257.337 247.181,248.583 254.558,254.566 266.128 C 262.536 281.539,293.943 264.754,307.612 237.778 C 310.417 232.243,310.424 230.649,307.626 234.813 M230.040 281.630 L 223.602 298.261 226.357 300.630 C 231.652 305.185,232.827 304.339,242.312 289.132 C 253.370 271.403,253.061 272.363,248.129 271.035 C 245.908 270.437,242.768 268.834,241.151 267.474 C 236.836 263.843,237.013 263.618,230.040 281.630 " stroke="none" fill="#000000" fill-rule="evenodd"></path></g></svg>