<svg id="svg" version="1.1" width="400" height="400" xmlns="http://www.w3.org/2000/svg" xmlns:xlink="http://www.w3.org/1999/xlink" style="display: block;"><g id="svgg"><path id="path0" d="M69.427 88.770 C 31.517 107.717,0.360 123.348,0.189 123.504 C 0.018 123.661,2.505 129.028,5.715 135.431 L 11.553 147.074 75.065 115.431 L 138.577 83.788 202.315 115.326 L 266.053 146.864 271.953 135.094 L 277.853 123.323 208.104 88.822 L 138.354 54.320 69.427 88.770 M305.000 204.000 L 305.000 346.000 311.000 346.000 L 317.000 346.000 317.010 234.750 L 317.021 123.500 327.597 120.075 C 343.254 115.005,346.000 115.002,364.133 120.044 C 379.679 124.365,390.527 125.569,397.250 123.719 L 400.000 122.962 400.000 97.374 C 400.000 73.377,399.891 71.834,398.250 72.559 C 392.751 74.987,381.287 74.222,368.195 70.555 C 346.833 64.570,338.907 64.289,324.291 68.999 C 320.876 70.100,317.838 71.000,317.541 71.000 C 317.243 71.000,317.000 68.975,317.000 66.500 L 317.000 62.000 311.000 62.000 L 305.000 62.000 305.000 204.000 M65.000 239.500 L 65.000 332.000 83.500 332.000 L 102.000 332.000 102.000 291.500 L 102.000 251.000 138.500 251.000 L 175.000 251.000 175.000 291.500 L 175.000 332.000 194.000 332.000 L 213.000 332.000 213.000 239.500 L 213.000 147.000 194.000 147.000 L 175.000 147.000 175.000 183.000 L 175.000 219.000 138.500 219.000 L 102.000 219.000 102.000 183.000 L 102.000 147.000 83.500 147.000 L 65.000 147.000 65.000 239.500 " stroke="none" fill="#000000" fill-rule="evenodd"></path></g></svg>