<svg version="1.1" id="Layer_1" xmlns="http://www.w3.org/2000/svg" xmlns:xlink="http://www.w3.org/1999/xlink" x="0px" y="0px"
	 viewBox="0 0 61 64" style="enable-background:new 0 0 61 64;" xml:space="preserve">
<style type="text/css">
	.st0{fill:none;stroke:#010101;stroke-width:2;stroke-linejoin:round;stroke-miterlimit:10;}
	.st1{fill:none;stroke:#231F20;stroke-width:2;stroke-linecap:round;stroke-linejoin:round;stroke-miterlimit:10;}
</style>
<path class="st0" d="M30.5,3.6c0,0-6.7,8-22,8v19.1c0,10,4.3,19.6,12.2,25.7c2.8,2.2,6,4.1,9.8,5.2c3.8-1.1,7.1-3,9.8-5.2
	c7.8-6.2,12.2-15.8,12.2-25.7V11.6C37.2,11.6,30.5,3.6,30.5,3.6z"/>
<path class="st0" d="M30.5,55.3c-2.1-0.8-4.2-2-6.1-3.6c-6.2-4.9-9.9-12.7-9.9-21V17.2c7.4-0.9,12.6-3.5,16-5.8
	c3.4,2.3,8.6,4.9,16,5.8v13.5c0,8.3-3.7,16.2-9.9,21C34.7,53.2,32.6,54.4,30.5,55.3z"/>
<polyline class="st1" points="41.5,24.6 27.5,40.6 19.5,32.6 "/>
</svg>
