<svg version="1.1" id="Layer_1" xmlns="http://www.w3.org/2000/svg" xmlns:xlink="http://www.w3.org/1999/xlink" x="0px" y="0px"
	 viewBox="0 0 61 64" style="enable-background:new 0 0 61 64;" xml:space="preserve">
<style type="text/css">
	.st0{fill:none;stroke:#666766;stroke-width:4;stroke-linecap:round;stroke-linejoin:round;stroke-miterlimit:10;}
</style>
<path class="st0" d="M30.6,13.2c-8.8,0-16,7.2-16,16c0,7.1,4.6,13.1,11,15.2v9.8h2v3h6v-3h2v-9.8c6.4-2.1,11-8.1,11-15.2
	C46.6,20.4,39.5,13.2,30.6,13.2z"/>
<line class="st0" x1="25.6" y1="47.2" x2="35.6" y2="47.2"/>
<line class="st0" x1="30.6" y1="5.2" x2="30.6" y2="9.2"/>
<line class="st0" x1="54.6" y1="29.2" x2="50.6" y2="29.2"/>
<line class="st0" x1="10.6" y1="29.2" x2="6.6" y2="29.2"/>
<line class="st0" x1="47.6" y1="12.3" x2="44.8" y2="15.1"/>
<line class="st0" x1="16.5" y1="43.4" x2="13.7" y2="46.2"/>
<line class="st0" x1="47.6" y1="46.2" x2="44.8" y2="43.4"/>
<line class="st0" x1="16.5" y1="15.1" x2="13.7" y2="12.3"/>
<path class="st0" d="M19.6,29.2c0-6.1,4.9-11,11-11"/>
</svg>
