<svg enable-background="new 0 0 61 64" viewBox="0 0 61 64" xmlns="http://www.w3.org/2000/svg"><g style="fill:none;stroke:white;stroke-width:4;stroke-linecap:round;stroke-linejoin:round;stroke-miterlimit:10"><path d="m30.6 13.2c-8.8 0-16 7.2-16 16 0 7.1 4.6 13.1 11 15.2v9.8h2v3h6v-3h2v-9.8c6.4-2.1 11-8.1 11-15.2 0-8.8-7.1-16-16-16z"/><path d="m25.6 47.2h10"/><path d="m30.6 5.2v4"/><path d="m54.6 29.2h-4"/><path d="m10.6 29.2h-4"/><path d="m47.6 12.3-2.8 2.8"/><path d="m16.5 43.4-2.8 2.8"/><path d="m47.6 46.2-2.8-2.8"/><path d="m16.5 15.1-2.8-2.8"/><path d="m19.6 29.2c0-6.1 4.9-11 11-11"/></g></svg>