<?xml version="1.0" encoding="utf-8"?>
<!-- Generator: Adobe Illustrator 21.0.0, SVG Export Plug-In . SVG Version: 6.00 Build 0)  -->
<svg version="1.1" id="Layer_1" xmlns="http://www.w3.org/2000/svg" xmlns:xlink="http://www.w3.org/1999/xlink" x="0px" y="0px"
	 viewBox="0 0 61 64" style="enable-background:new 0 0 61 64;" xml:space="preserve">
<style type="text/css">
	.st0{fill:none;stroke:#010101;stroke-width:2;stroke-linecap:round;stroke-miterlimit:10;}
	.st1{fill:none;stroke:#1D2021;stroke-width:2;stroke-miterlimit:10;}
</style>
<path class="community-icon" d="M40,47l-8.7-4.4c-1.1-0.6-1.8-1.7-1.8-3v-3.4c0.2-0.3,0.5-0.6,0.8-1.1c1.2-1.7,2.1-3.5,2.7-5.5
	c1.1-0.3,1.9-1.4,1.9-2.6v-3.6c0-0.8-0.4-1.5-0.9-2v-5.3c0,0,1.1-8.2-10-8.2c-11.1,0-10,8.2-10,8.2v5.3c-0.6,0.5-0.9,1.2-0.9,2v3.6
	c0,1,0.5,1.8,1.3,2.3c0.9,4,3.3,6.8,3.3,6.8v3.3c0,1.2-0.7,2.3-1.7,2.9L7.7,47c-2.4,1.3-3.8,3.7-3.8,6.4v3H44v-2.8
	C44,50.8,42.5,48.3,40,47z"/>
<path class="st1" d="M53.2,48.1l-8.9-3.9c-0.5-0.2-0.9-0.8-1.2-1.3c-0.3-0.5,0.1-1.1,0.7-1.1h6.3c0,0,2.3,0.2,4.1-0.5
	c1-0.4,1.4-1.8,0.7-2.7c-1.9-2.7-5.8-9.1-6-15.7c0,0-0.2-10.1-10.2-10.2c-2,0-3.6,0.4-5,1.1c0.3,1.4,0.2,2.4,0.2,2.4v5.3
	c0.6,0.5,0.9,1.2,0.9,2v3.6c0,1.2-0.8,2.3-1.9,2.6c-0.6,1.9-1.5,3.8-2.7,5.5c-0.3,0.4-0.6,0.8-0.8,1.1v3.4c0,0.8,0.3,1.5,0.7,2.1
	h2.5c0.6,0,0.9,0.8,0.4,1.2c-0.2,0.1-0.3,0.3-0.5,0.4L40,47c2.5,1.2,4,3.8,4,6.5v2.8h12.8v-2.5C56.8,51.4,55.4,49.2,53.2,48.1z"/>
</svg>
