<?xml version="1.0" encoding="utf-8"?>
<!-- Generator: Adobe Illustrator 21.0.0, SVG Export Plug-In . SVG Version: 6.00 Build 0)  -->
<svg version="1.1" id="Layer_1" xmlns="http://www.w3.org/2000/svg" xmlns:xlink="http://www.w3.org/1999/xlink" x="0px" y="0px"
	 viewBox="0 0 1792 1792" style="enable-background:new 0 0 1792 1792;" xml:space="preserve">
<style type="text/css">
	.st0{fill:#F0F4F7;}
	.st1{fill:#397AB0;}
</style>
<path class="st0" d="M509,607c-152.7,78-279.7,195.7-381,353c88.7,136.7,199.8,245.5,333.5,326.5S740,1408,896,1408
	s300.8-40.5,434.5-121.5S1575.3,1096.7,1664,960c-101.3-157.3-258-294-381-353 M1792,960c0,22.7-6.7,45.7-20,69
	c-93.3,153.3-218.8,276.2-376.5,368.5S1071.3,1536,896,1536s-341.8-46.3-499.5-139S113.3,1181.7,20,1029c-13.3-23.3-20-46.3-20-69
	s6.7-45.7,20-69c93.3-152.7,218.8-275.3,376.5-368S720.7,384,896,384s341.8,46.3,499.5,139s283.2,215.3,376.5,368
	C1785.3,914.3,1792,937.3,1792,960z"/>
<path class="st1" d="M509,607c0,0,375-185,767-9c128,108-348,198-348,198L509,607z"/>
<circle class="st0" cx="924.4" cy="946.4" r="160.4"/>
</svg>
