<?xml version="1.0" encoding="utf-8"?>
<!-- Generator: Adobe Illustrator 21.0.0, SVG Export Plug-In . SVG Version: 6.00 Build 0)  -->
<svg version="1.1" id="Layer_1" xmlns="http://www.w3.org/2000/svg" xmlns:xlink="http://www.w3.org/1999/xlink" x="0px" y="0px"
	 viewBox="0 0 61 64" style="enable-background:new 0 0 61 64;" xml:space="preserve">
<style type="text/css">
	.Graphic_x0020_Style_x0020_3{fill:none;stroke:#010101;stroke-width:2;stroke-linecap:round;stroke-miterlimit:10;}
	.st0{fill:none;stroke:#231E20;stroke-width:2;stroke-miterlimit:10;}
	.st1{fill:none;stroke:#010101;stroke-width:2;stroke-linecap:round;stroke-miterlimit:10;}
</style>
<polygon class="st0" points="40.7,37.9 45.1,49.9 47.7,44.8 52.8,42.3 "/>
<line class="Graphic_x0020_Style_x0020_3" x1="47.7" y1="44.8" x2="54.7" y2="51.8"/>
<path class="st1" d="M21.6,46.2l5.3-2.9c0,0,0,0,0.1,0l2.6-1.4c1.1-0.6,1.7-1.7,1.7-2.9v-3.3c0,0-1-1.1-1.9-3h0c0,0,0,0,0,0
	c-0.1-0.2-0.2-0.5-0.4-0.8c0,0,0-0.1,0-0.1c-0.1-0.3-0.2-0.6-0.3-0.8c0,0,0,0,0-0.1c-0.1-0.3-0.2-0.5-0.3-0.8c0-0.1,0-0.1-0.1-0.2
	c-0.1-0.3-0.2-0.6-0.2-0.9c-0.7-0.5-1.2-1.3-1.2-2.3v-3.6c0-0.8,0.4-1.5,0.9-2V16c-1.3-1-3.2-1.9-6.3-1.9c-8.6,0-9,7.2-9,7.2v4.5
	c-0.5,0.4-0.9,1-0.9,1.7v3.1c0,0.8,0.4,1.5,1.1,2c0.8,3.4,3.4,5.8,3.4,5.8v2.8c0,1-0.6,2-1.5,2.5l-6,3.8c-2,1.1-3.2,3.2-3.2,5.5v2.5
	h12.6v-2.9C17.9,49.9,19.3,47.5,21.6,46.2z"/>
<g>
	<path class="st1" d="M46.5,29.3c1.1-0.3,1.9-1.4,1.9-2.6v-3.6c0-0.8-0.4-1.5-0.9-2v-5.2c0,0,1.1-8.1-9.9-8.1s-9.9,8.1-9.9,8.1v5.2
		c-0.5,0.5-0.9,1.2-0.9,2v3.6c0,0.9,0.5,1.8,1.2,2.3c0.9,3.9,3.2,6.7,3.2,6.7V39c0,1.2-0.7,2.3-1.7,2.9l-8,4.4
		c-2.3,1.3-3.8,3.7-3.8,6.3v2.9h18"/>
</g>
</svg>
