<svg id="svg" version="1.1" width="400" height="400" xmlns="http://www.w3.org/2000/svg" xmlns:xlink="http://www.w3.org/1999/xlink" style="display: block;"><g id="svgg"><path id="path0" d="M181.000 10.897 L 181.000 21.793 172.250 23.013 C 118.060 30.568,83.407 63.037,81.279 108.250 C 78.887 159.065,111.774 194.459,176.750 210.995 L 181.000 212.077 181.000 258.539 C 181.000 284.092,180.689 305.000,180.308 305.000 C 170.592 305.000,147.107 279.242,141.785 262.750 C 140.587 259.038,139.043 256.000,138.355 256.000 C 135.771 256.000,70.533 262.134,70.264 262.402 C 69.642 263.025,74.971 282.020,77.866 289.500 C 92.449 327.172,129.623 353.791,174.250 358.518 L 181.000 359.233 181.000 379.616 L 181.000 400.000 200.500 400.000 L 220.000 400.000 220.000 379.220 L 220.000 358.440 230.639 356.640 C 294.605 345.818,333.495 303.549,329.543 249.143 C 326.261 203.953,298.403 178.867,232.750 161.981 L 220.000 158.701 220.000 115.351 C 220.000 91.508,220.275 72.000,220.610 72.000 C 222.058 72.000,232.992 78.369,236.481 81.245 C 241.358 85.265,247.514 94.782,249.678 101.648 C 251.144 106.299,251.701 106.998,253.933 106.983 C 257.798 106.956,318.119 100.214,318.576 99.757 C 319.557 98.776,314.498 83.646,310.414 75.350 C 296.722 47.533,269.349 29.714,230.617 23.403 L 220.000 21.673 220.000 10.836 L 220.000 0.000 200.500 0.000 L 181.000 0.000 181.000 10.897 M180.771 128.397 L 180.500 147.927 173.228 144.409 C 138.621 127.665,139.522 87.762,174.831 73.406 L 180.500 71.101 180.771 89.984 C 180.921 100.370,180.921 117.656,180.771 128.397 M228.085 224.088 C 231.613 225.237,237.425 227.561,241.000 229.254 C 276.990 246.293,269.532 294.519,229.068 306.405 C 219.014 309.358,220.000 313.862,220.000 265.000 C 220.000 241.350,220.376 222.000,220.835 222.000 C 221.294 222.000,224.557 222.940,228.085 224.088 " stroke="none" fill="#000000" fill-rule="evenodd"></path></g></svg>