<svg xmlns="http://www.w3.org/2000/svg" viewBox="0 0 35.99845 47.99554"><defs><style>.cls-1{fill:black;}</style></defs><title>Asset 962</title><g id="Layer_2" data-name="Layer 2"><g id="Icons"><path class="cls-1" d="M29.6085,19.81555a1.9808,1.9808,0,0,0-1.61005-.82h-17.79a1.99986,1.99986,0,0,0-1.77,1.07l-8.21,16.52a2.00791,2.00791,0,0,0,.42,2.41s12.2,9,17.35,9a2.82562,2.82562,0,0,0,2.25-1.13,3.26735,3.26735,0,0,0,.75-1.87c0-1,0-3-3-4-4.15-1.59-7.07-2.41-8.17-3-.59-.31-1.03-.83-.72-1.42a18.54784,18.54784,0,0,0,1.89-7.58c0-2,1-3,2-3s2,1,2,3c0,3.36,5.04,7.42,6.62,8.64a1.0781,1.0781,0,0,1,.37.88995c0,1.47-.17,4.47,2.51,4.47,3.5,0,11.5-5,11.5-10C35.99845,28.90552,31.30845,22.13556,29.6085,19.81555Zm-5.61005,14.18a4,4,0,1,1,4-4A3.99894,3.99894,0,0,1,23.99845,33.99554Z"/><circle class="cls-1" cx="18.99833" cy="7" r="7"/></g></g></svg>