<svg id="svg" version="1.1" width="400" height="400" xmlns="http://www.w3.org/2000/svg" xmlns:xlink="http://www.w3.org/1999/xlink" style="display: block;"><g id="svgg"><path id="path0" d="M73.500 28.339 C 51.474 35.635,44.740 61.371,60.684 77.316 C 80.011 96.643,113.199 81.188,110.735 54.009 C 109.109 36.078,89.970 22.883,73.500 28.339 M311.500 27.877 C 289.095 33.813,281.597 60.768,297.839 76.993 C 321.404 100.534,359.819 73.027,344.701 43.437 C 338.610 31.515,323.861 24.603,311.500 27.877 M61.500 94.409 C 42.993 98.995,40.250 103.829,9.103 186.727 C -0.592 212.529,-1.125 214.875,2.000 218.000 C 8.379 224.379,10.491 221.610,32.500 178.000 C 43.186 156.825,51.946 139.998,51.965 140.608 C 52.001 141.735,34.438 250.222,33.406 255.250 L 32.841 258.000 42.349 258.000 L 51.856 258.000 52.413 263.250 C 52.719 266.137,54.143 290.775,55.577 318.000 C 58.358 370.785,58.436 371.318,63.590 372.612 C 66.490 373.340,70.578 371.534,71.518 369.109 C 72.021 367.811,77.931 268.337,77.985 260.250 C 77.997 258.423,78.561 258.000,80.981 258.000 C 84.873 258.000,84.369 253.821,87.859 315.000 C 89.506 343.875,91.135 368.224,91.480 369.109 C 92.424 371.535,96.510 373.340,99.410 372.612 C 104.567 371.318,104.624 370.913,107.442 316.000 C 108.896 287.675,110.311 263.038,110.588 261.250 L 111.091 258.000 120.520 258.000 L 129.950 258.000 129.445 255.250 C 127.776 246.168,111.010 141.780,111.054 140.751 C 111.084 140.063,119.680 156.600,130.155 177.500 C 152.794 222.666,154.297 224.635,160.826 217.686 C 164.057 214.246,163.842 213.334,152.931 184.297 C 122.326 102.844,119.639 98.249,100.201 94.124 C 93.236 92.647,67.859 92.833,61.500 94.409 M296.000 94.814 C 274.614 100.404,271.759 105.493,245.624 184.607 C 236.067 213.538,235.818 214.925,239.635 217.927 C 246.523 223.346,247.466 221.983,267.537 177.599 C 277.367 155.862,285.509 138.175,285.629 138.295 C 287.956 140.623,287.662 206.292,284.989 281.135 C 283.269 329.305,282.419 363.957,282.926 365.269 C 286.292 373.981,298.520 375.241,303.655 367.404 C 305.052 365.272,317.050 254.722,318.079 234.500 C 318.163 232.850,321.256 261.556,324.951 298.291 C 332.212 370.460,331.851 368.439,338.096 371.789 C 341.198 373.452,347.586 372.685,350.180 370.337 C 355.133 365.854,355.068 369.143,351.929 282.436 C 349.246 208.316,348.963 140.704,351.326 138.340 C 351.453 138.214,359.370 155.523,368.919 176.805 C 388.901 221.340,390.355 223.442,397.365 217.927 C 401.189 214.920,400.986 213.865,390.387 181.686 C 368.255 114.492,364.128 105.742,351.269 98.743 C 340.494 92.878,311.336 90.806,296.000 94.814 M195.646 206.146 C 177.658 210.188,177.392 236.259,195.290 241.078 C 206.528 244.104,218.000 235.405,218.000 223.856 C 218.000 212.131,207.176 203.555,195.646 206.146 M142.200 219.200 C 137.652 223.748,161.175 255.457,173.922 261.960 C 181.332 265.741,182.068 274.854,179.448 330.405 L 177.660 368.311 180.386 370.655 C 183.463 373.302,184.810 373.499,188.458 371.837 C 191.740 370.342,192.101 368.834,196.137 339.767 C 197.950 326.713,199.715 316.363,200.061 316.767 C 200.406 317.170,202.131 327.625,203.894 340.000 C 208.136 369.774,207.951 368.876,210.315 371.078 C 213.066 373.642,216.304 373.503,219.584 370.681 L 222.280 368.362 220.508 331.431 C 218.720 294.189,218.957 267.962,221.104 265.375 C 221.686 264.673,224.515 262.772,227.390 261.149 C 233.667 257.606,240.739 250.062,249.926 237.108 C 258.933 224.408,259.466 223.319,258.124 220.374 C 255.939 215.576,252.213 217.143,244.652 226.039 C 231.806 241.152,220.490 248.861,213.917 246.976 C 209.473 245.702,190.471 245.718,186.002 246.999 C 179.331 248.913,166.341 239.803,153.932 224.509 C 148.513 217.830,145.110 216.290,142.200 219.200 " stroke="none" fill="#000000" fill-rule="evenodd"></path></g></svg>