<?xml version="1.0" encoding="iso-8859-1"?>
<!-- Generator: Adobe Illustrator 16.0.0, SVG Export Plug-In . SVG Version: 6.00 Build 0)  -->
<!DOCTYPE svg PUBLIC "-//W3C//DTD SVG 1.1//EN" "http://www.w3.org/Graphics/SVG/1.1/DTD/svg11.dtd">
<svg version="1.1" id="Capa_1" xmlns="http://www.w3.org/2000/svg" xmlns:xlink="http://www.w3.org/1999/xlink" x="0px" y="0px"
	 width="612px" height="612px" viewBox="0 0 612 612" style="enable-background:new 0 0 612 612;" xml:space="preserve">
<g>
	<g>
		<path d="M41.19,500.53h23.696c9.051,0,16.395-7.34,16.395-16.396c0-9.051-7.339-16.395-16.395-16.395H41.19v-73.22h23.696
			c9.051,0,16.395-7.34,16.395-16.396c0-9.051-7.339-16.395-16.395-16.395H41.19v-73.215h23.696c9.051,0,16.395-7.339,16.395-16.395
			c0-9.051-7.339-16.395-16.395-16.395H41.19v-73.22h23.696c9.051,0,16.395-7.339,16.395-16.395s-7.339-16.395-16.395-16.395H41.19
			V76.5h23.696c9.056,0,16.395-7.339,16.395-16.395S73.942,43.71,64.886,43.71H41.19V0H0v570.81V612l0,0h41.19l0,0H612v-41.19H41.19
			V500.53z"/>
		<polygon points="541.381,279.775 581.462,303.705 583.317,176.911 472.569,238.689 512.646,262.62 462.657,346.344 
			253.574,171.565 109.82,345.546 135.62,366.86 257.934,218.833 471.283,397.184 		"/>
		<polygon points="403.652,254.946 501.754,129.491 538.526,158.24 556.222,32.675 438.622,80.119 475.395,108.874 377.288,234.334 
					"/>
		<polygon points="242.247,330.939 137.38,466.282 163.839,486.779 245.441,381.467 288.582,424.608 354.664,337.877 
			328.037,317.595 285.168,373.86 		"/>
	</g>
</g>
<g>
</g>
<g>
</g>
<g>
</g>
<g>
</g>
<g>
</g>
<g>
</g>
<g>
</g>
<g>
</g>
<g>
</g>
<g>
</g>
<g>
</g>
<g>
</g>
<g>
</g>
<g>
</g>
<g>
</g>
</svg>
