<svg enable-background="new 0 0 612 612" height="612" viewBox="0 0 612 612" width="612" xmlns="http://www.w3.org/2000/svg"><path d="m41.19 500.53h23.696c9.051 0 16.395-7.34 16.395-16.396 0-9.051-7.339-16.395-16.395-16.395h-23.696v-73.22h23.696c9.051 0 16.395-7.34 16.395-16.396 0-9.051-7.339-16.395-16.395-16.395h-23.696v-73.215h23.696c9.051 0 16.395-7.339 16.395-16.395 0-9.051-7.339-16.395-16.395-16.395h-23.696v-73.22h23.696c9.051 0 16.395-7.339 16.395-16.395s-7.339-16.395-16.395-16.395h-23.696v-73.213h23.696c9.056 0 16.395-7.339 16.395-16.395s-7.339-16.395-16.395-16.395h-23.696v-43.71h-41.19v570.81 41.19h41.19 570.81v-41.19h-570.81z"/><path d="m541.381 279.775 40.081 23.93 1.855-126.794-110.748 61.778 40.077 23.931-49.989 83.724-209.083-174.779-143.754 173.981 25.8 21.314 122.314-148.027 213.349 178.351z"/><path d="m403.652 254.946 98.102-125.455 36.772 28.749 17.696-125.565-117.6 47.444 36.773 28.755-98.107 125.46z"/><path d="m242.247 330.939-104.867 135.343 26.459 20.497 81.602-105.312 43.141 43.141 66.082-86.731-26.627-20.282-42.869 56.265z"/></svg>