<?xml version="1.0" encoding="utf-8"?>
<!-- Generator: Adobe Illustrator 17.0.0, SVG Export Plug-In . SVG Version: 6.00 Build 0)  -->
<!DOCTYPE svg PUBLIC "-//W3C//DTD SVG 1.1//EN" "http://www.w3.org/Graphics/SVG/1.1/DTD/svg11.dtd">
<svg version="1.1" id="Layer_1" xmlns="http://www.w3.org/2000/svg" xmlns:xlink="http://www.w3.org/1999/xlink" x="0px" y="0px"
	 width="579px" height="572.599px" viewBox="0 0 579 572.599" enable-background="new 0 0 579 572.599" xml:space="preserve">
<ellipse fill="#68ADDF" stroke="#DC2B27" stroke-width="5" stroke-miterlimit="10" cx="290.208" cy="287.192" rx="284.22" ry="281.336"/>
<g>
	<g opacity="0.91">
		<path fill="#FFFFFF" stroke="#025984" stroke-miterlimit="10" d="M292.119,169.961c-0.05-4.119,0.84-9.703-4.544-10.012
			c-6.135-0.352-4.73,5.556-4.738,9.438c-0.07,36.952-0.095,73.905,0.013,110.857c0.016,5.426-0.401,10.477-5.818,13.175
			c-5.028,2.504-9.282,0.192-13.184-2.997c-4.449-8.958-3.132-18.598-3.239-28.048c-0.127-11.189,0.012-22.38-0.076-33.57
			c-0.056,15.031-0.056,30.062-0.024,45.093c0.012,5.748-0.744,11.303-3.301,16.519c-5.651,5.348-11.379,5.267-17.176,0.242
			c-3.927-2.354-2.667-6.232-2.582-9.574c0.865-34.007-1.148-67.956-1.952-101.928c-0.021-0.883,0.137-1.895-1.58-2.813
			c-2.818,6.059-2.634,12.169-1.143,18.405c1.416,5.925,3.228,11.747,4.015,17.833c0.425,3.286,1.249,6.404-2.303,8.492
			c-3.777,1.713-7.175,2.263-10.144-1.76c-10.446-14.156-10.275-43.514,0.486-58.094c4.44-2.386,9.833,4.131,13.612-1.358
			c-4.415,2.815-8.697,3.656-11.465-2.635c0.003-11.451,10.798-10.937,17.09-15.416c0.272-0.172,0.613-0.551,0.805-0.486
			c10.849,3.654,21.508,2.842,32.038-1.294c5.134,0.8,9.754,5.905,15.467,1.845"/>
		<path fill="#FFFFFF" stroke="#025984" stroke-miterlimit="10" d="M338.746,145.557c2.517-1.205,7.113,9.781,10.073,12.041"/>
		<path fill="#FFFFFF" stroke="#025984" stroke-miterlimit="10" d="M246.003,132.458c-6.155-11.75-4.727-21.039,4.171-27.13
			c7.74-5.299,18.238-3.925,24.332,3.359c5.594,6.688,5.565,14.008,1.954,21.591C268.026,142.401,255.285,143.313,246.003,132.458z"
			/>
		<path fill="#FFFFFF" stroke="#025984" stroke-miterlimit="10" d="M282.658,169.961c0.05-4.119-0.84-9.703,4.544-10.012
			c6.135-0.352,4.73,5.556,4.738,9.438c0.07,36.952,0.095,73.905-0.013,110.857c-0.016,5.426,0.401,10.477,5.818,13.175
			c5.028,2.504,9.282,0.192,13.184-2.997c4.449-8.958,3.132-18.598,3.239-28.048c0.127-11.189-0.012-22.38,0.076-33.57
			c0.056,15.031,0.056,30.062,0.024,45.093c-0.012,5.748,0.744,11.303,3.301,16.519c5.651,5.348,11.379,5.267,17.176,0.242
			c3.927-2.354,2.667-6.232,2.582-9.574c-0.865-34.007,1.148-67.956,1.952-101.928c0.021-0.883-0.137-1.895,1.58-2.813
			c2.818,6.059,2.634,12.169,1.143,18.405c-1.416,5.925-3.228,11.747-4.015,17.833c-0.425,3.286-1.249,6.404,2.303,8.492
			c3.777,1.713,7.175,2.263,10.144-1.76c10.446-14.156,10.275-43.514-0.486-58.094c-4.44-2.386-9.833,4.131-13.612-1.358
			c4.415,2.815,8.697,3.656,11.465-2.635c-0.003-11.451-10.798-10.937-17.09-15.416c-0.272-0.172-0.613-0.551-0.805-0.486
			c-10.849,3.654-21.508,2.842-32.038-1.294c-5.134,0.8-9.754,5.905-15.467,1.845"/>
		<path fill="#FFFFFF" stroke="#025984" stroke-miterlimit="10" d="M301.355,132.458c-6.155-11.75-4.727-21.039,4.171-27.13
			c7.74-5.299,18.238-3.925,24.332,3.359c5.594,6.688,5.565,14.008,1.954,21.591C323.377,142.401,310.637,143.313,301.355,132.458z"
			/>
	</g>
	<g opacity="0.9">
		<path fill="#7D7D7D" stroke="#FFFFFF" stroke-width="3" stroke-miterlimit="10" d="M415.53,204.966
			c-0.055-4.49,0.916-10.577-4.953-10.913c-6.688-0.384-5.156,6.056-5.164,10.288c-0.076,40.28-0.104,80.561,0.014,120.842
			c0.017,5.914-0.437,11.421-6.342,14.362c-5.481,2.73-10.118,0.21-14.372-3.267c-4.85-9.765-3.414-20.273-3.531-30.575
			c-0.138-12.196,0.013-24.395-0.083-36.593c-0.061,16.385-0.061,32.769-0.026,49.154c0.013,6.266-0.811,12.321-3.599,18.007
			c-6.16,5.829-12.404,5.741-18.723,0.263c-4.28-2.565-2.907-6.793-2.815-10.437c0.943-37.07-1.251-74.076-2.128-111.108
			c-0.023-0.963,0.149-2.065-1.722-3.066c-3.072,6.605-2.871,13.265-1.246,20.062c1.544,6.459,3.519,12.805,4.377,19.439
			c0.463,3.582,1.362,6.98-2.51,9.256c-4.117,1.868-7.822,2.467-11.057-1.918c-11.387-15.431-11.201-47.433,0.53-63.327
			c4.84-2.601,10.719,4.503,14.838-1.48c-4.813,3.069-9.48,3.985-12.498-2.872c0.003-12.482,11.771-11.922,18.629-16.805
			c0.296-0.187,0.668-0.6,0.878-0.53c11.826,3.983,23.446,3.098,34.923-1.411c5.596,0.872,10.632,6.436,16.86,2.011"/>
		<path fill="#7D7D7D" stroke="#FFFFFF" stroke-width="3" stroke-miterlimit="10" d="M466.356,178.364
			c2.744-1.314,7.754,10.661,10.98,13.125"/>
		<path fill="#7D7D7D" stroke="#FFFFFF" stroke-width="3" stroke-miterlimit="10" d="M365.26,164.085
			c-6.71-12.808-5.153-22.934,4.546-29.574c8.437-5.776,19.881-4.279,26.523,3.662c6.098,7.291,6.067,15.269,2.13,23.536
			C389.266,174.924,375.378,175.918,365.26,164.085z"/>
		<path fill="#7D7D7D" stroke="#FFFFFF" stroke-width="3" stroke-miterlimit="10" d="M405.216,204.966
			c0.055-4.49-0.916-10.577,4.953-10.913c6.688-0.384,5.156,6.056,5.164,10.288c0.076,40.28,0.104,80.561-0.014,120.842
			c-0.017,5.914,0.437,11.421,6.342,14.362c5.481,2.73,10.118,0.21,14.372-3.267c4.85-9.765,3.414-20.273,3.531-30.575
			c0.138-12.196-0.013-24.395,0.083-36.593c0.061,16.385,0.061,32.769,0.026,49.154c-0.013,6.266,0.811,12.321,3.599,18.007
			c6.16,5.829,12.404,5.741,18.723,0.263c4.28-2.565,2.907-6.793,2.815-10.437c-0.943-37.07,1.251-74.076,2.128-111.108
			c0.023-0.963-0.149-2.065,1.722-3.066c3.072,6.605,2.871,13.265,1.246,20.062c-1.544,6.459-3.519,12.805-4.377,19.439
			c-0.463,3.582-1.362,6.98,2.51,9.256c4.117,1.868,7.822,2.467,11.057-1.918c11.387-15.431,11.201-47.433-0.53-63.327
			c-4.84-2.601-10.719,4.503-14.838-1.48c4.813,3.069,9.48,3.985,12.498-2.872c-0.003-12.482-11.771-11.922-18.629-16.805
			c-0.296-0.187-0.668-0.6-0.878-0.53c-11.826,3.983-23.446,3.098-34.923-1.411c-5.596,0.872-10.632,6.436-16.86,2.011"/>
		<path fill="#7D7D7D" stroke="#FFFFFF" stroke-width="3" stroke-miterlimit="10" d="M425.597,164.085
			c-6.71-12.808-5.153-22.934,4.546-29.574c8.437-5.776,19.881-4.279,26.523,3.662c6.098,7.291,6.067,15.269,2.13,23.536
			C449.602,174.924,435.715,175.918,425.597,164.085z"/>
	</g>
	<g>
		<path fill="#025984" stroke="#FFFFFF" stroke-width="2" stroke-miterlimit="10" d="M486.09,234.722
			c8.384,28.487,16.767,56.974,25.415,86.359c-8.038,0-15.741,0-24.193,0c-0.156,3.099-0.367,5.382-0.37,7.666
			c-0.023,18.978,0.014,37.955-0.015,56.933c-0.012,7.624-2.722,10.925-8.885,11.055c-6.111,0.129-9.063-3.169-9.108-10.881
			c-0.107-18.759-0.031-37.519-0.03-56.278c0-1.527,0.252-3.115-0.091-4.562c-0.29-1.222-1.274-2.279-1.951-3.409
			c-0.897,1.145-2.163,2.168-2.59,3.467c-0.453,1.38-0.112,3.021-0.112,4.548c-0.004,18.759,0.063,37.519-0.044,56.278
			c-0.044,7.625-3.071,10.998-9.143,10.845c-6.128-0.155-8.838-3.519-8.844-11.101c-0.014-18.759,0-37.519,0.002-56.278
			c0-2.347,0-4.694,0-7.93c-8.407,0-16.131,0-24.669,0c8.689-29.533,17.071-58.021,25.452-86.508
			c-0.642-0.422-1.284-0.845-1.925-1.267c-1.199,1.748-2.921,3.336-3.514,5.27c-4.653,15.179-9.091,30.424-13.594,45.648
			c-1.367,4.622-3.637,8.123-9.265,6.583c-4.767-1.304-6.837-4.435-5.42-9.382c5.449-19.026,10.626-38.138,16.517-57.027
			c3.383-10.845,12.534-16.709,23.866-16.753c8.507-0.033,17.014-0.019,25.522-0.007c11.839,0.017,21.114,6.291,24.565,17.63
			c5.637,18.518,10.749,37.196,16.11,55.798c1.396,4.843-0.195,8.08-4.998,9.656c-5.188,1.702-7.961-1.117-9.301-5.535
			c-4.672-15.4-9.087-30.878-13.764-46.276c-0.63-2.075-2.203-3.863-3.339-5.785C487.614,233.893,486.852,234.307,486.09,234.722z"
			/>
		<path fill="#025984" stroke="#FFFFFF" stroke-width="2" stroke-miterlimit="10" d="M467.037,203.237
			c-11.834,0.066-20.676-8.365-20.693-19.731c-0.017-11.159,9.079-20.032,20.537-20.034c11.036-0.002,19.824,8.794,19.862,19.879
			C486.782,194.672,478.357,203.174,467.037,203.237z"/>
	</g>
	<g opacity="0.9">
		<path fill="#7D7D7D" stroke="#FFFFFF" stroke-width="3" stroke-miterlimit="10" d="M168.969,204.966
			c-0.055-4.49,0.916-10.577-4.953-10.913c-6.688-0.384-5.156,6.056-5.164,10.288c-0.076,40.28-0.104,80.561,0.014,120.842
			c0.017,5.914-0.437,11.421-6.342,14.362c-5.481,2.73-10.118,0.21-14.372-3.267c-4.85-9.765-3.414-20.273-3.531-30.575
			c-0.138-12.196,0.013-24.395-0.083-36.593c-0.061,16.385-0.061,32.769-0.026,49.154c0.013,6.266-0.811,12.321-3.599,18.007
			c-6.16,5.829-12.404,5.741-18.723,0.263c-4.28-2.565-2.907-6.793-2.815-10.437c0.943-37.07-1.251-74.076-2.128-111.108
			c-0.023-0.963,0.149-2.065-1.722-3.066c-3.072,6.605-2.871,13.265-1.246,20.062c1.544,6.459,3.519,12.805,4.377,19.439
			c0.463,3.582,1.362,6.98-2.51,9.256c-4.117,1.868-7.822,2.467-11.057-1.918c-11.387-15.431-11.201-47.433,0.53-63.327
			c4.84-2.601,10.719,4.503,14.838-1.48c-4.813,3.069-9.48,3.985-12.498-2.872c0.003-12.482,11.771-11.922,18.629-16.805
			c0.296-0.187,0.668-0.6,0.878-0.53c11.826,3.983,23.446,3.098,34.923-1.411c5.596,0.872,10.632,6.436,16.86,2.011"/>
		<path fill="#7D7D7D" stroke="#FFFFFF" stroke-width="3" stroke-miterlimit="10" d="M219.795,178.364
			c2.743-1.314,7.754,10.661,10.98,13.125"/>
		<path fill="#7D7D7D" stroke="#FFFFFF" stroke-width="3" stroke-miterlimit="10" d="M118.699,164.085
			c-6.71-12.808-5.153-22.934,4.546-29.574c8.437-5.776,19.881-4.279,26.523,3.662c6.098,7.291,6.067,15.269,2.13,23.536
			C142.705,174.924,128.817,175.918,118.699,164.085z"/>
		<path fill="#7D7D7D" stroke="#FFFFFF" stroke-width="3" stroke-miterlimit="10" d="M158.655,204.966
			c0.055-4.49-0.916-10.577,4.953-10.913c6.688-0.384,5.156,6.056,5.164,10.288c0.076,40.28,0.104,80.561-0.014,120.842
			c-0.017,5.914,0.437,11.421,6.342,14.362c5.481,2.73,10.118,0.21,14.372-3.267c4.85-9.765,3.414-20.273,3.531-30.575
			c0.138-12.196-0.013-24.395,0.083-36.593c0.061,16.385,0.061,32.769,0.026,49.154c-0.013,6.266,0.811,12.321,3.599,18.007
			c6.16,5.829,12.404,5.741,18.723,0.263c4.28-2.565,2.907-6.793,2.815-10.437c-0.943-37.07,1.251-74.076,2.128-111.108
			c0.023-0.963-0.149-2.065,1.722-3.066c3.072,6.605,2.871,13.265,1.246,20.062c-1.544,6.459-3.519,12.805-4.377,19.439
			c-0.463,3.582-1.362,6.98,2.51,9.256c4.117,1.868,7.822,2.467,11.057-1.918c11.387-15.431,11.201-47.433-0.53-63.327
			c-4.84-2.601-10.719,4.503-14.838-1.48c4.813,3.069,9.48,3.985,12.498-2.872c-0.003-12.482-11.771-11.922-18.629-16.805
			c-0.296-0.187-0.668-0.6-0.878-0.53c-11.826,3.983-23.446,3.098-34.923-1.411c-5.596,0.872-10.632,6.436-16.86,2.011"/>
		<path fill="#7D7D7D" stroke="#FFFFFF" stroke-width="3" stroke-miterlimit="10" d="M179.036,164.085
			c-6.71-12.808-5.153-22.934,4.546-29.574c8.437-5.776,19.881-4.279,26.523,3.662c6.098,7.291,6.067,15.269,2.13,23.536
			C203.042,174.924,189.154,175.918,179.036,164.085z"/>
	</g>
	<g>
		<g>
			<path fill="#025984" stroke="#FFFFFF" stroke-width="2" stroke-miterlimit="10" d="M315.337,364.035
				c-0.265,3.437-0.638,6.87-0.765,10.312c-0.129,3.49,0.402,8.012-4.789,7.115c-1.909-0.33-4.288-4.711-4.386-7.32
				c-0.463-12.229-0.206-24.485-0.206-37.881c-7.048,3.93-13.042,7.273-20.197,11.263c1.858,7.031,4.285,16.211,6.948,26.288
				c-4.865,0.267-9.068,0.497-12.479,0.684c-2.281,2.448-4.005,5.863-6.013,6.032c-2.176,0.183-4.617-2.659-7.233-4.372
				c-1.855,2.447-5.138,10.688-9.697-0.769c-0.427-1.073-4.463-0.915-6.839-1.05c-2.934-0.166-5.886-0.04-10.119-0.04
				c3.158-10.929,5.768-20.917,8.937-30.731c7.089-21.955,3.306-29.445-18.584-37.582c-3.288-1.222-6.675-4.418-8.196-7.551
				c-3.877-7.987-6.724-16.455-11.871-24.337c0,2.52-0.001,5.04,0,7.56c0.007,29.137,0.048,58.275,0.001,87.412
				c-0.014,8.876-3.294,12.371-11.281,12.066c-6.558-0.25-10.769-2.83-10.671-10.221c0.204-15.234,0.234-30.477-0.102-45.707
				c-0.054-2.439-2.37-4.831-3.641-7.244c-1.24,2.42-3.498,4.819-3.553,7.265c-0.335,14.963-0.091,29.937-0.204,44.905
				c-0.06,7.864-3.157,10.875-10.677,10.947c-8.03,0.077-11.107-2.911-11.124-11.203c-0.063-30.473-0.05-60.947-0.065-91.42
				c-0.001-1.732,0-3.465-1.595-5.532c-3.21,8.313-5.97,16.837-9.847,24.839c-1.62,3.344-5.517,7.616-8.558,7.758
				c-3.131,0.146-7.7-3.554-9.52-6.738c-7.559-13.22-14.317-26.881-23.166-40.255c0,6.251-1.109,12.737,0.204,18.71
				c4.302,19.57,9.489,38.952,14.318,58.411c0.303,1.222,0.461,2.479,0.836,4.551c-7.075,0-13.501,0-21.268,0
				c0,8.585,0.002,16.486-0.001,24.388c-0.001,2.673,0.685,5.598-0.196,7.957c-1.142,3.055-3.235,7.735-5.456,8.048
				c-5.498,0.775-5.913-4.076-5.908-8.306c0.012-8.554,0.209-17.116-0.138-25.657c-0.083-2.036-2.004-4-3.08-5.997
				c-0.914,1.924-2.553,3.824-2.617,5.775c-0.293,8.812,0.314,17.675-0.409,26.44c-0.234,2.84-3.532,5.437-5.428,8.145
				c-1.945-2.721-5.381-5.348-5.566-8.179c-0.676-10.344-0.267-20.757-0.267-31.955c-6.731,0-12.852,0-19.626,0
				c3.484-27.916,15.507-53.538,15.08-81.155c-0.733-0.283-1.466-0.566-2.199-0.849c-2.265,4.217-4.565,8.417-6.789,12.655
				c-4.734,9.019-9.124,18.233-14.347,26.969c-1.386,2.318-5.283,3.191-8.027,4.728c-0.399-3.233-2.195-7.134-0.974-9.594
				c9.524-19.191,19.773-38.035,29.453-57.154c2.423-4.785,5.73-6.827,10.899-6.581c0.543,0.026,1.09,0.006,1.634-0.008
				c28.553-0.749,28.557-0.751,41.523,24.069c5.055,9.677,10.087,19.365,15.997,30.713c6.979-18.208,13.329-34.794,19.696-51.373
				c1.727-4.497,3.451-8.995,5.268-13.457c3.168-7.78,10.451-6.796,15.998-5.298c2.828,0.763,4.644,6.595,6.029,10.444
				c0.728,2.021-0.435,4.708-0.783,7.089c-1.431,9.783-2.062,19.768-4.548,29.287c-2.484,9.513,2.1,14.407,9.112,18.732
				c8.222-4.56,10.78-10.886,8.748-20.095c-2.472-11.201-4.156-22.66-4.895-34.088c-0.248-3.831,2.409-9.801,5.564-11.471
				c6.324-3.348,14.242,0.011,16.423,5.769c9.848,25.997,18.72,52.385,29.683,77.913c2.437,5.675,12.431,12.477,18.059,11.789
				c17.317-2.117,24.987,5.975,29.758,20.03c0.586,1.726,1.719,3.272,3.054,5.744c4.129-2.665,7.784-5.276,11.688-7.459
				c2.747-1.536,5.754-3.281,8.78-3.57c15.199-1.453,15.21-1.293,21.283,13.103c1.248,2.959,2.919,5.806,3.71,8.874
				c0.712,2.761,0.485,5.755,0.672,8.646c-2.785-1.098-5.571-2.195-9.317-3.671c0,6.733,0.06,14.477-0.027,22.219
				c-0.04,3.582,0.972,8.646-4.932,7.729c-1.848-0.287-3.612-4.806-4.289-7.647c-0.738-3.093-0.167-6.485-0.167-9.747
				C317.151,364.108,316.244,364.072,315.337,364.035z"/>
			<path fill="#025984" stroke="#FFFFFF" stroke-width="2" stroke-miterlimit="10" d="M182.975,207.329
				c-12.627-0.502-22.284-10.692-21.937-23.145c0.351-12.594,11.025-22.404,23.988-22.046c12.689,0.351,23.041,11.279,22.432,23.679
				C206.834,198.514,196.202,207.855,182.975,207.329z"/>
			<path fill="#025984" stroke="#FFFFFF" stroke-width="2" stroke-miterlimit="10" d="M97.07,181.475
				c3.659,4.197,7.719,8.854,11.178,12.822c-1.355,3.326-3.45,6.896-4.245,10.726c-2.116,10.191-10.064,16.635-20.188,15.7
				c-9.646-0.891-16.919-8.749-16.928-18.289c-0.009-9.686,7.698-17.346,17.859-18.284C88.784,183.778,92.73,182.448,97.07,181.475z
				"/>
		</g>
		<path fill="#025984" stroke="#FFFFFF" stroke-width="2" stroke-miterlimit="10" d="M283.793,287.829
			c-4.296,5.191-7.827,10.471-12.48,14.508c-1.543,1.339-6.335,0.209-9.002-1.072c-5.505-2.645-6.739-10.624-3.036-15.843
			C263.741,279.127,273.42,279.572,283.793,287.829z"/>
		<path fill="#025984" stroke="#FFFFFF" stroke-width="2" stroke-miterlimit="10" d="M332.993,301.196
			c-1.45,2.15-3.594,4.499-4.774,7.247c-2.769,6.452-9.625,9.53-15.718,6.625c-5.799-2.765-8.078-9.836-4.987-15.475
			c3.14-5.729,10.808-7.293,16.703-3.533C327.352,298.061,330.642,299.829,332.993,301.196z"/>
	</g>
	<g>
		<path fill="#025984" stroke="#FFFFFF" stroke-width="2" stroke-miterlimit="10" d="M125.463,298.732
			c-4.296,5.191-7.827,10.471-12.48,14.508c-1.543,1.339-6.335,0.209-9.002-1.072c-5.505-2.645-6.739-10.624-3.036-15.843
			C105.411,290.029,115.09,290.474,125.463,298.732z"/>
		<path fill="#025984" stroke="#FFFFFF" stroke-width="2" stroke-miterlimit="10" d="M174.663,312.098
			c-1.45,2.15-3.594,4.499-4.774,7.247c-2.769,6.452-9.625,9.53-15.718,6.625c-5.799-2.765-8.078-9.836-4.987-15.475
			c3.14-5.729,10.808-7.293,16.703-3.533C169.022,308.964,172.312,310.731,174.663,312.098z"/>
		<path fill="#025984" stroke="#FFFFFF" stroke-width="2" stroke-miterlimit="10" d="M168.575,358.524
			c3.746,1.476,6.532,2.574,9.317,3.671c-0.187-2.891,0.04-5.885-0.672-8.646c-0.791-3.068-2.462-5.915-3.71-8.874
			c-6.073-14.397-6.084-14.556-21.283-13.103c-3.026,0.289-6.033,2.034-8.78,3.57c-3.904,2.182-7.558,4.793-11.688,7.458
			c-1.335-2.472-2.468-4.019-3.054-5.744c-4.771-14.055-12.441-22.147-29.758-20.03c-5.47,0.669-15.039-5.733-17.814-11.302
			c-0.451,0.61-0.911,1.204-1.39,1.763c-1.626,2.276-2.232,5.12-2.648,8.095c16.453,7.336,18.875,15.383,12.503,35.118
			c-3.169,9.814-5.779,19.803-8.937,30.731c4.233,0,7.185-0.126,10.119,0.04c2.377,0.134,6.412-0.023,6.839,1.05
			c4.559,11.457,7.842,3.216,9.697,0.769c2.616,1.713,5.057,4.555,7.233,4.372c2.009-0.169,3.733-3.584,6.013-6.032
			c3.412-0.187,7.614-0.417,12.479-0.684c-2.663-10.076-5.089-19.256-6.948-26.288c7.155-3.99,13.149-7.333,20.197-11.263
			c0,13.396-0.257,25.652,0.206,37.881c0.099,2.609,2.477,6.99,4.386,7.32c5.191,0.897,4.661-3.625,4.789-7.115
			c0.127-3.442,0.5-6.875,0.765-10.312c0.907,0.036,1.814,0.073,2.721,0.109c0,3.262-0.57,6.655,0.167,9.747
			c0.678,2.84,2.441,7.36,4.289,7.647c5.904,0.916,4.891-4.148,4.931-7.729C168.635,373.002,168.575,365.258,168.575,358.524z"/>
	</g>
	<g>
		<path fill="#025984" stroke="#FFFFFF" stroke-width="2" stroke-miterlimit="10" d="M402.41,331.506c0,2.228,0,4.457,0,6.685
			c0,14.067-0.002,28.135,0,42.202c0.002,9.699,1.689,12.597,7.347,12.644c5.785,0.048,7.789-3.323,7.789-13.12
			c0.001-24.985-0.001-49.971-0.002-74.956c0-2.088,0-4.175,0-6.263c0.486-0.08,0.971-0.16,1.457-0.241
			c0.8,5.286,1.945,10.548,2.307,15.864c0.399,5.851-0.277,11.784,0.262,17.612c0.189,2.046,2.592,3.886,3.985,5.82
			c1.825-1.598,5.085-3.063,5.248-4.816c1.329-14.272,1.168-28.548-4.436-42.077c-3.171-7.655-8.841-11.901-17.657-11.348
			c-5.647,0.355-11.341,0.246-17.001,0.022c-7.161-0.283-12.198,3.029-15.244,9.105c-7.27,14.502-6.427,30.095-5.207,45.598
			c0.101,1.286,4.104,3.677,4.769,3.239c1.881-1.239,4.008-3.593,4.184-5.666c0.691-8.126,0.528-16.321,0.982-24.473
			c0.179-3.214,1.144-6.383,1.75-9.573c0.527,0.049,1.055,0.098,1.582,0.147c0,8.999-0.001,17.997,0,26.996
			c0.002,19.735-0.053,39.47,0.04,59.205c0.033,7.058,5.176,11.408,10.217,8.188c2.55-1.629,4.549-6.035,4.651-9.254
			c0.481-15.102,0.2-30.228,0.236-45.345c0.005-2.112,0.258-4.224,0.396-6.336C400.847,331.414,401.628,331.46,402.41,331.506z"/>
		<path fill="#025984" stroke="#FFFFFF" stroke-width="2" stroke-miterlimit="10" d="M400.743,249.083
			c-7.803,0.06-13.408,5.688-13.411,13.465c-0.003,7.859,5.547,13.517,13.331,13.593c7.945,0.077,14.039-5.986,13.913-13.841
			C414.454,254.744,408.467,249.024,400.743,249.083z"/>
	</g>
	<g>
		<path fill="#676767" stroke="#FFFFFF" stroke-width="4" stroke-miterlimit="10" d="M252.029,333.987c-1.718,0-3.176,0-5.037,0
			c0,0.945,0,1.884,0,2.824c0,34.979,0.01,69.959-0.004,104.938c-0.004,10.212-9.033,16.729-19.16,13.881
			c-5.907-1.661-9.736-6.472-9.987-12.562c-0.031-0.753-0.013-1.508-0.013-2.261c0-60.837,0-121.674,0-182.512
			c0-0.749,0-1.498,0-2.428c-1.703,0-3.287,0-5.172,0c0,0.896,0,1.774,0,2.652c-0.001,21.711,0.028,43.423-0.019,65.134
			c-0.018,8.352-8.135,13.34-15.88,9.814c-4.63-2.108-6.079-5.979-6.078-10.601c0.005-23.596,0.001-47.192,0.002-70.788
			c0-1.281-0.014-2.564,0.038-3.844c0.551-13.588,9.334-25.033,22.55-28.961c3.164-0.94,6.6-1.403,9.917-1.429
			c17.059-0.134,34.121,0.126,51.178-0.095c20.813-0.269,33.869,15.688,33.864,32.319c-0.008,24.35,0.029,48.7-0.01,73.05
			c-0.014,8.574-7.327,13.711-15.116,10.743c-4.361-1.662-6.719-5.33-6.723-10.656c-0.018-21.561-0.008-43.121-0.009-64.682
			c0-0.825,0-1.65,0-2.657c-1.621,0-3.135,0-4.998,0c0,0.917,0,1.87,0,2.823c0,60.385,0.005,120.77-0.022,181.155
			c-0.001,2.096-0.05,4.256-0.553,6.277c-1.714,6.892-7.903,10.695-15.901,9.993c-6.856-0.602-12.234-5.794-12.793-12.381
			c-0.083-0.975-0.072-1.958-0.072-2.938c-0.003-34.753-0.002-69.507-0.002-104.26C252.029,335.727,252.029,334.919,252.029,333.987
			z"/>
		<path fill="#676767" stroke="#FFFFFF" stroke-width="4" stroke-miterlimit="10" d="M249.525,212.428
			c-13.807-0.021-25.035-10.862-25.042-24.18c-0.007-13.37,11.427-24.396,25.211-24.312c13.908,0.085,25.067,11.014,24.991,24.476
			C274.609,201.774,263.427,212.448,249.525,212.428z"/>
	</g>
	<g>
		<path fill="#676767" stroke="#FFFFFF" stroke-width="4" stroke-miterlimit="10" d="M346.354,332.891c-1.718,0-3.176,0-5.037,0
			c0,0.945,0,1.884,0,2.824c0,34.979,0.01,69.959-0.004,104.938c-0.004,10.212-9.033,16.729-19.16,13.881
			c-5.907-1.661-9.736-6.472-9.987-12.562c-0.031-0.753-0.013-1.508-0.013-2.261c0-60.837,0-121.674,0-182.511
			c0-0.749,0-1.498,0-2.428c-1.703,0-3.287,0-5.172,0c0,0.896,0,1.774,0,2.652c-0.001,21.711,0.028,43.423-0.019,65.134
			c-0.018,8.352-8.135,13.34-15.88,9.814c-4.63-2.108-6.079-5.979-6.078-10.601c0.005-23.596,0.001-47.192,0.002-70.788
			c0-1.281-0.014-2.564,0.038-3.844c0.551-13.588,9.334-25.033,22.55-28.961c3.164-0.94,6.6-1.403,9.917-1.429
			c17.059-0.134,34.121,0.126,51.178-0.095c20.813-0.269,33.869,15.688,33.864,32.319c-0.008,24.35,0.029,48.7-0.01,73.05
			c-0.014,8.574-7.327,13.711-15.116,10.743c-4.361-1.662-6.719-5.33-6.723-10.656c-0.018-21.561-0.008-43.121-0.009-64.682
			c0-0.825,0-1.65,0-2.657c-1.621,0-3.135,0-4.998,0c0,0.917,0,1.87,0,2.823c0,60.385,0.005,120.77-0.022,181.155
			c-0.001,2.096-0.05,4.256-0.553,6.277c-1.714,6.892-7.903,10.695-15.901,9.993c-6.856-0.602-12.233-5.794-12.793-12.381
			c-0.083-0.975-0.072-1.958-0.072-2.938c-0.003-34.753-0.002-69.507-0.002-104.26C346.354,334.631,346.354,333.823,346.354,332.891
			z"/>
		<path fill="#676767" stroke="#FFFFFF" stroke-width="4" stroke-miterlimit="10" d="M343.851,211.332
			c-13.807-0.021-25.035-10.862-25.042-24.18c-0.007-13.37,11.427-24.396,25.211-24.312c13.908,0.085,25.067,11.014,24.991,24.476
			C368.935,200.678,357.752,211.353,343.851,211.332z"/>
	</g>
</g>
</svg>
