<?xml version="1.0" standalone="no"?>
<!DOCTYPE svg PUBLIC "-//W3C//DTD SVG 20010904//EN"
 "http://www.w3.org/TR/2001/REC-SVG-20010904/DTD/svg10.dtd">
<svg version="1.0" xmlns="http://www.w3.org/2000/svg"
 width="874.000000pt" height="846.000000pt" viewBox="0 0 874.000000 846.000000"
 preserveAspectRatio="xMidYMid meet">

<g transform="translate(0.000000,846.000000) scale(0.100000,-0.100000)"
fill="#000000" stroke="none">
<path d="M4313 8390 c-62 -37 -68 -57 -71 -236 l-4 -161 -111 -6 c-62 -4 -163
-14 -226 -22 -1373 -181 -2525 -1094 -3015 -2388 -125 -329 -210 -722 -232
-1065 l-7 -112 -151 0 c-171 0 -203 -9 -243 -69 -45 -66 -18 -156 57 -193 29
-15 62 -18 186 -18 l151 0 7 -112 c26 -409 136 -861 306 -1248 283 -648 756
-1211 1348 -1607 539 -361 1186 -581 1814 -619 l116 -7 4 -161 c3 -179 9 -199
71 -236 61 -37 138 -21 182 38 18 24 20 45 23 192 l3 166 157 12 c1020 77
1972 581 2617 1384 360 449 611 971 734 1528 38 169 69 389 79 545 l7 120 160
5 c176 6 203 13 235 65 24 40 26 107 4 145 -33 56 -64 65 -239 70 l-160 5 -7
120 c-21 344 -109 741 -239 1078 -430 1113 -1374 1961 -2522 2267 -228 60
-492 104 -704 116 l-122 7 -3 166 c-3 147 -5 169 -23 193 -42 57 -124 74 -182
38z m-73 -802 c1 -166 9 -204 54 -245 30 -28 43 -33 83 -33 60 0 104 26 126
73 14 28 17 66 17 187 l0 152 78 -7 c648 -53 1187 -234 1692 -568 901 -596
1467 -1569 1545 -2654 l7 -93 -148 0 c-169 0 -202 -9 -241 -69 -45 -66 -18
-156 57 -193 29 -15 62 -18 184 -18 l148 0 -7 -92 c-77 -1077 -629 -2034
-1520 -2636 -510 -345 -1078 -540 -1712 -586 l-83 -6 0 151 c0 120 -3 158 -17
186 -22 47 -66 73 -126 73 -40 0 -53 -5 -83 -32 -45 -42 -53 -80 -54 -246 l0
-133 -77 6 c-272 22 -525 67 -756 135 -882 258 -1631 865 -2072 1678 -213 395
-352 846 -394 1287 -6 61 -13 134 -16 163 l-5 52 153 0 c129 0 158 3 187 19
96 51 96 191 0 242 -29 16 -58 19 -187 19 l-153 0 5 53 c3 28 10 102 15 162
44 456 190 919 419 1329 314 560 764 1013 1328 1334 442 252 998 413 1521 440
l32 2 0 -132z"/>
<path d="M4320 6042 c-19 -11 -44 -35 -55 -53 -19 -32 -20 -57 -25 -403 l-5
-369 -63 -13 c-282 -58 -543 -267 -668 -538 -35 -76 -74 -205 -74 -243 l0 -23
-366 0 c-317 0 -371 -2 -400 -16 -105 -50 -105 -198 0 -248 29 -14 83 -16 398
-16 l363 0 13 -66 c38 -203 179 -426 353 -560 109 -84 253 -151 384 -178 l60
-13 5 -369 c4 -328 7 -373 23 -401 48 -89 170 -94 231 -10 20 27 21 44 26 404
l5 376 70 14 c95 19 223 75 321 139 204 134 356 355 411 595 l15 69 362 0
c324 0 365 2 396 18 75 37 102 127 57 193 -45 68 -50 69 -453 69 l-362 0 -15
69 c-55 240 -207 460 -411 596 -114 75 -208 113 -368 149 l-28 6 0 368 c0 346
-1 369 -20 399 -39 65 -118 89 -180 55z m214 -1107 c139 -29 288 -122 382
-236 273 -333 172 -847 -206 -1048 -113 -60 -182 -76 -330 -76 -125 0 -141 2
-221 31 -175 62 -314 186 -395 349 -100 203 -99 409 2 615 62 125 179 246 294
303 146 73 318 95 474 62z"/>
</g>
</svg>
