<?xml version="1.0" standalone="no"?>
<!DOCTYPE svg PUBLIC "-//W3C//DTD SVG 20010904//EN"
 "http://www.w3.org/TR/2001/REC-SVG-20010904/DTD/svg10.dtd">
<svg version="1.0" xmlns="http://www.w3.org/2000/svg"
 width="512.000000pt" height="512.000000pt" viewBox="0 0 512.000000 512.000000"
 preserveAspectRatio="xMidYMid meet">

<g transform="translate(0.000000,512.000000) scale(0.100000,-0.100000)"
fill="#000000" stroke="none">
<path d="M3564 3612 c-62 -22 -102 -52 -131 -100 -22 -36 -23 -44 -22 -312 l0
-275 532 -478 532 -477 3 757 2 758 -27 40 c-19 27 -48 50 -88 70 l-60 30
-345 2 c-309 3 -350 1 -396 -15z"/>
<path d="M1280 2265 c-701 -630 -1276 -1150 -1278 -1155 -3 -7 123 -10 360
-10 l363 1 913 804 c502 443 917 805 922 805 5 0 413 -362 907 -805 l897 -805
379 0 c246 0 378 3 375 10 -3 11 -2549 2300 -2558 2300 -3 0 -579 -515 -1280
-1145z"/>
</g>
</svg>
