<svg id="svg" version="1.1" width="400" height="400" xmlns="http://www.w3.org/2000/svg" xmlns:xlink="http://www.w3.org/1999/xlink" style="display: block;"><g id="svgg"><path id="path0" d="M53.586 198.250 C 24.504 307.288,0.498 397.288,0.238 398.250 C -0.210 399.912,9.789 400.000,200.000 400.000 C 390.211 400.000,400.210 399.912,399.762 398.250 C 399.502 397.287,375.496 307.288,346.414 198.250 L 293.538 0.000 200.000 0.000 L 106.462 0.000 53.586 198.250 M213.000 38.500 L 213.000 65.000 200.000 65.000 L 187.000 65.000 187.000 38.500 L 187.000 12.000 200.000 12.000 L 213.000 12.000 213.000 38.500 M213.000 145.500 L 213.000 172.000 200.000 172.000 L 187.000 172.000 187.000 145.500 L 187.000 119.000 200.000 119.000 L 213.000 119.000 213.000 145.500 M213.000 251.500 L 213.000 278.000 200.000 278.000 L 187.000 278.000 187.000 251.500 L 187.000 225.000 200.000 225.000 L 213.000 225.000 213.000 251.500 M213.000 358.500 L 213.000 385.000 200.000 385.000 L 187.000 385.000 187.000 358.500 L 187.000 332.000 200.000 332.000 L 213.000 332.000 213.000 358.500 " stroke="none" fill="#000000" fill-rule="evenodd"></path></g></svg>