<svg id="svg" version="1.1" width="400" height="400" xmlns="http://www.w3.org/2000/svg" xmlns:xlink="http://www.w3.org/1999/xlink" style="display: block;"><g id="svgg"><path id="path0" d="M215.059 27.135 C 117.638 35.128,45.932 88.683,9.716 180.500 C -0.971 207.595,0.000 196.540,0.000 291.105 L 0.000 374.000 200.021 374.000 L 400.041 374.000 399.771 353.750 L 399.500 333.500 387.500 332.800 C 290.549 327.141,222.720 288.913,201.152 227.775 C 177.289 160.134,221.759 79.939,278.419 88.436 L 283.096 89.137 280.592 91.106 C 277.206 93.770,272.241 104.184,270.925 111.384 C 268.068 127.010,274.991 140.463,289.668 147.806 C 338.336 172.157,363.026 101.592,321.167 57.779 C 296.733 32.204,264.994 23.038,215.059 27.135 " stroke="none" fill="#000000" fill-rule="evenodd"></path></g></svg>