<svg id="svg" version="1.1" width="400" height="400" xmlns="http://www.w3.org/2000/svg" xmlns:xlink="http://www.w3.org/1999/xlink" style="display: block;"><g id="svgg"><path id="path0" d="M102.387 7.980 C 72.905 12.409,49.466 32.917,38.908 63.519 L 36.500 70.500 36.500 171.000 C 36.500 266.576,36.592 271.794,38.380 277.500 C 48.256 309.011,71.595 329.623,103.500 335.010 C 110.026 336.112,289.974 336.112,296.500 335.010 C 329.313 329.469,353.703 307.238,361.974 275.332 C 365.290 262.537,364.621 72.802,361.227 63.500 C 351.159 35.912,333.961 19.056,306.500 9.860 L 299.500 7.516 203.500 7.364 C 150.700 7.280,105.199 7.557,102.387 7.980 M300.500 42.951 C 314.475 48.658,324.177 58.922,328.852 72.944 C 332.222 83.053,332.229 259.909,328.860 270.056 C 323.744 285.464,311.883 296.531,295.674 301.023 C 285.778 303.765,116.191 304.126,105.644 301.428 C 88.521 297.047,76.308 285.932,71.063 269.955 C 67.764 259.905,67.840 82.867,71.148 72.944 C 76.741 56.169,91.232 43.475,108.000 40.662 C 109.375 40.431,151.900 40.300,202.500 40.371 L 294.500 40.500 300.500 42.951 M188.000 74.986 C 168.923 79.013,150.319 94.801,146.828 109.926 C 142.294 129.566,167.579 140.165,178.029 123.006 C 189.874 103.558,211.541 103.508,221.310 122.907 C 227.471 135.141,215.462 156.000,202.258 156.000 C 199.284 156.000,189.216 166.300,185.995 172.639 C 181.286 181.904,181.779 207.276,186.775 212.798 C 199.260 226.597,216.038 218.569,217.000 198.337 L 217.500 187.817 222.526 185.658 C 286.454 158.208,256.013 60.630,188.000 74.986 M195.685 235.008 C 184.778 237.005,178.893 251.670,185.250 261.010 C 194.937 275.243,217.000 269.271,217.000 252.417 C 217.000 239.497,208.606 232.642,195.685 235.008 M158.000 349.500 C 159.019 350.727,158.953 351.000,157.641 351.000 C 155.728 351.000,154.535 355.010,155.411 358.500 C 156.253 361.854,163.438 362.259,164.290 359.000 C 164.630 357.700,164.320 357.000,163.406 357.000 C 162.633 357.000,162.000 357.481,162.000 358.070 C 162.000 358.658,160.988 358.995,159.750 358.820 C 158.102 358.585,157.500 357.831,157.500 356.000 C 157.500 354.169,158.102 353.415,159.750 353.180 C 160.988 353.005,162.000 353.342,162.000 353.930 C 162.000 354.519,162.450 355.000,163.000 355.000 C 163.550 355.000,164.000 354.100,164.000 353.000 C 164.000 351.822,163.333 351.000,162.378 351.000 C 161.049 351.000,160.980 350.729,162.000 349.500 C 163.063 348.219,162.771 348.000,160.000 348.000 C 157.229 348.000,156.937 348.219,158.000 349.500 M30.054 352.435 C 29.399 353.224,29.007 355.361,29.182 357.185 L 29.500 360.500 35.202 360.585 C 40.179 360.660,40.942 360.415,41.202 358.664 C 41.653 355.623,44.000 355.364,44.000 358.355 C 44.000 360.840,44.119 360.878,52.008 360.895 L 60.016 360.912 59.425 358.206 C 59.099 356.718,58.660 354.938,58.448 354.250 C 57.892 352.445,53.261 352.712,52.199 354.609 C 51.399 356.038,51.231 356.046,50.708 354.681 C 50.272 353.546,48.626 353.143,44.430 353.143 C 41.302 353.143,38.261 352.661,37.671 352.071 C 36.129 350.529,31.450 350.753,30.054 352.435 M60.661 352.442 C 59.606 355.190,61.156 361.000,62.943 361.000 C 64.456 361.000,65.018 356.636,64.136 351.750 C 63.896 350.422,61.232 350.952,60.661 352.442 M80.000 352.000 C 80.000 352.550,78.923 353.000,77.607 353.000 C 76.251 353.000,74.922 353.759,74.540 354.750 C 73.898 356.417,73.819 356.417,72.883 354.750 C 70.783 351.010,65.537 353.704,66.173 358.195 C 66.479 360.353,66.995 360.514,74.250 360.718 L 82.000 360.936 82.000 355.968 C 82.000 353.236,81.550 351.000,81.000 351.000 C 80.450 351.000,80.000 351.450,80.000 352.000 M87.000 356.000 L 87.000 361.000 91.000 361.000 C 94.682 361.000,95.005 360.781,95.063 358.250 L 95.127 355.500 96.085 357.895 C 96.612 359.212,96.778 361.125,96.454 362.145 C 96.027 363.491,96.368 364.000,97.698 364.000 C 99.256 364.000,103.000 356.667,103.000 353.616 C 103.000 352.076,99.996 353.200,99.968 354.750 C 99.940 356.326,99.815 356.343,98.718 354.916 C 98.011 353.996,95.826 353.271,93.507 353.187 C 91.311 353.108,89.361 352.583,89.174 352.021 C 88.254 349.262,87.000 351.557,87.000 356.000 M107.627 352.530 C 105.586 357.848,107.680 361.000,113.255 361.000 L 117.110 361.000 116.805 356.250 L 116.500 351.500 112.377 351.199 C 109.294 350.973,108.095 351.310,107.627 352.530 M178.864 352.250 C 177.917 360.936,177.932 361.000,180.983 361.000 C 184.185 361.000,185.636 359.565,184.314 357.706 C 183.843 357.043,183.512 355.262,183.579 353.750 C 183.708 350.873,179.171 349.430,178.864 352.250 M37.250 354.616 C 39.391 355.371,39.562 357.000,37.500 357.000 C 36.675 357.000,36.000 357.450,36.000 358.000 C 36.000 359.449,32.249 359.230,31.718 357.750 C 31.060 355.913,32.944 352.788,34.318 353.439 C 34.968 353.747,36.288 354.276,37.250 354.616 M114.500 354.000 C 114.840 354.550,114.416 355.000,113.559 355.000 C 112.702 355.000,112.000 355.450,112.000 356.000 C 112.000 356.550,112.702 357.000,113.559 357.000 C 114.416 357.000,114.840 357.450,114.500 358.000 C 113.429 359.733,110.162 359.085,109.503 357.009 C 108.429 353.626,112.685 351.063,114.500 354.000 M119.000 357.096 C 119.000 359.243,119.450 361.000,120.000 361.000 C 120.550 361.000,121.000 359.875,121.000 358.500 C 121.000 357.125,121.450 356.000,122.000 356.000 C 122.550 356.000,123.000 357.125,123.000 358.500 C 123.000 361.288,127.460 362.140,129.800 359.800 C 130.733 358.867,131.000 359.200,131.000 361.300 C 131.000 365.321,136.443 365.279,137.515 361.250 C 137.917 359.738,138.454 359.063,138.707 359.750 C 139.474 361.836,144.777 361.279,145.488 359.038 C 146.930 354.493,141.389 350.785,139.080 354.750 C 138.109 356.417,138.059 356.417,138.030 354.750 C 138.008 353.486,137.181 353.000,135.050 353.000 C 133.281 353.000,131.706 353.701,131.117 354.750 C 130.202 356.379,130.089 356.383,129.482 354.808 C 128.989 353.528,127.632 353.125,123.915 353.154 L 119.000 353.192 119.000 357.096 M147.000 357.000 C 147.000 359.200,147.450 361.000,148.000 361.000 C 148.550 361.000,149.000 359.875,149.000 358.500 C 149.000 356.944,149.567 356.000,150.500 356.000 C 151.325 356.000,152.000 355.325,152.000 354.500 C 152.000 353.567,151.056 353.000,149.500 353.000 C 147.250 353.000,147.000 353.400,147.000 357.000 M166.000 356.948 C 166.000 359.176,166.450 361.000,167.000 361.000 C 167.550 361.000,168.000 359.875,168.000 358.500 C 168.000 355.389,169.746 355.189,170.180 358.250 C 170.837 362.870,177.198 361.977,176.814 357.318 L 176.500 353.500 171.250 353.198 L 166.000 352.895 166.000 356.948 M186.000 357.000 C 186.000 359.200,186.450 361.000,187.000 361.000 C 187.550 361.000,188.000 359.875,188.000 358.500 C 188.000 357.125,188.450 356.000,189.000 356.000 C 189.550 356.000,190.000 357.125,190.000 358.500 C 190.000 359.875,190.450 361.000,191.000 361.000 C 191.550 361.000,192.000 359.200,192.000 357.000 C 192.000 353.222,191.833 353.000,189.000 353.000 C 186.167 353.000,186.000 353.222,186.000 357.000 M194.335 354.250 C 191.543 358.083,192.711 361.000,197.035 361.000 C 200.435 361.000,201.101 360.705,200.607 359.418 C 200.273 358.548,200.000 356.748,200.000 355.418 C 200.000 352.724,196.040 351.908,194.335 354.250 M202.000 357.000 C 202.000 359.200,202.450 361.000,203.000 361.000 C 203.550 361.000,204.000 359.923,204.000 358.607 C 204.000 357.291,204.675 355.955,205.500 355.638 C 207.890 354.721,207.237 353.000,204.500 353.000 C 202.250 353.000,202.000 353.400,202.000 357.000 M79.000 357.500 C 79.000 358.325,78.577 359.000,78.059 359.000 C 76.798 359.000,75.895 357.438,76.694 356.639 C 77.820 355.513,79.000 355.954,79.000 357.500 M92.000 357.500 C 92.000 358.325,91.577 359.000,91.059 359.000 C 89.798 359.000,88.895 357.438,89.694 356.639 C 90.820 355.513,92.000 355.954,92.000 357.500 M135.000 357.500 C 135.000 358.325,134.550 359.000,134.000 359.000 C 133.450 359.000,133.000 358.325,133.000 357.500 C 133.000 356.675,133.450 356.000,134.000 356.000 C 134.550 356.000,135.000 356.675,135.000 357.500 M143.000 357.500 C 143.000 358.325,142.550 359.000,142.000 359.000 C 141.450 359.000,141.000 358.325,141.000 357.500 C 141.000 356.675,141.450 356.000,142.000 356.000 C 142.550 356.000,143.000 356.675,143.000 357.500 M29.661 367.442 C 28.960 369.267,30.014 376.000,31.000 376.000 C 31.406 376.000,31.984 374.538,32.284 372.750 C 32.584 370.962,33.141 368.712,33.522 367.750 C 34.042 366.436,33.716 366.000,32.214 366.000 C 31.114 366.000,29.965 366.649,29.661 367.442 M64.000 371.000 C 64.000 373.750,64.450 376.000,65.000 376.000 C 65.550 376.000,66.018 374.762,66.040 373.250 L 66.080 370.500 67.572 373.250 C 70.033 377.787,72.000 376.788,72.000 371.000 C 72.000 368.250,71.550 366.000,71.000 366.000 C 70.450 366.000,69.988 367.238,69.973 368.750 L 69.947 371.500 68.242 368.750 C 65.563 364.430,64.000 365.259,64.000 371.000 M103.000 370.940 C 103.000 373.723,103.450 376.000,104.000 376.000 C 104.550 376.000,105.000 375.381,105.000 374.625 C 105.000 373.869,106.380 372.974,108.068 372.636 C 113.007 371.649,111.980 366.622,106.750 366.190 L 103.000 365.879 103.000 370.940 M125.000 370.918 C 125.000 373.623,124.727 376.548,124.393 377.418 C 123.958 378.552,124.383 379.000,125.893 379.000 C 127.233 379.000,128.000 378.363,127.999 377.250 C 127.999 375.735,129.030 375.500,135.664 375.500 C 141.321 375.500,143.451 375.136,143.795 374.109 C 144.148 373.055,143.623 372.878,141.630 373.378 C 139.745 373.851,139.000 373.649,139.000 372.663 C 139.000 371.777,140.069 371.325,141.998 371.394 C 144.408 371.479,144.996 371.941,144.998 373.750 C 144.999 375.255,145.600 376.000,146.812 376.000 C 148.464 376.000,149.057 371.851,148.136 366.750 C 147.901 365.453,145.239 365.936,144.686 367.376 C 144.350 368.252,143.216 368.573,141.573 368.259 C 140.152 367.987,138.356 368.289,137.583 368.931 C 136.622 369.729,135.973 369.766,135.530 369.049 C 134.651 367.626,130.679 367.721,129.200 369.200 C 128.267 370.133,128.000 369.911,128.000 368.200 C 128.000 366.911,127.379 366.000,126.500 366.000 C 125.370 366.000,125.000 367.213,125.000 370.918 M34.000 372.057 C 34.000 376.211,35.635 377.538,36.180 373.828 C 36.653 370.615,39.000 370.287,39.000 373.435 C 39.000 376.855,48.661 377.204,49.201 373.804 C 49.600 371.289,51.418 371.398,51.820 373.960 C 52.274 376.859,54.000 376.494,54.000 373.500 C 54.000 372.125,54.450 371.000,55.000 371.000 C 55.550 371.000,56.000 372.125,56.000 373.500 C 56.000 375.099,56.563 376.000,57.560 376.000 C 58.752 376.000,59.047 375.114,58.810 372.250 L 58.500 368.500 52.750 368.200 C 48.849 367.997,47.000 368.277,47.000 369.073 C 47.000 369.893,46.625 369.936,45.750 369.216 C 45.063 368.649,42.138 368.170,39.250 368.150 L 34.000 368.115 34.000 372.057 M74.088 369.394 C 71.596 372.397,73.141 375.470,77.314 375.814 L 81.128 376.128 80.814 372.314 C 80.465 368.076,76.581 366.390,74.088 369.394 M82.000 372.000 C 82.000 375.905,82.083 376.000,85.500 376.000 C 88.917 376.000,89.000 375.905,89.000 372.000 C 89.000 367.492,87.303 366.520,86.816 370.750 C 86.427 374.136,84.615 373.986,84.184 370.531 C 83.677 366.483,82.000 367.611,82.000 372.000 M90.000 371.937 C 90.000 376.182,91.627 377.593,92.180 373.828 C 92.652 370.627,95.000 370.284,95.000 373.417 C 95.000 374.837,95.477 376.000,96.060 376.000 C 96.674 376.000,96.990 374.421,96.810 372.250 C 96.308 366.180,90.000 365.890,90.000 371.937 M107.771 369.188 C 107.153 371.042,105.000 371.349,105.000 369.583 C 105.000 368.712,105.713 368.000,106.583 368.000 C 107.454 368.000,107.989 368.534,107.771 369.188 M112.000 372.024 C 112.000 374.211,112.450 376.000,113.000 376.000 C 113.550 376.000,114.000 375.127,114.000 374.059 C 114.000 371.243,115.799 370.562,116.179 373.235 C 116.439 375.067,117.229 375.560,120.314 375.814 L 124.128 376.128 123.814 372.314 L 123.500 368.500 117.750 368.274 L 112.000 368.048 112.000 372.024 M43.808 372.075 C 43.611 372.666,43.023 373.150,42.500 373.150 C 41.977 373.150,41.389 372.666,41.192 372.075 C 40.995 371.484,41.583 371.000,42.500 371.000 C 43.417 371.000,44.005 371.484,43.808 372.075 M78.808 372.075 C 78.611 372.666,78.023 373.150,77.500 373.150 C 76.977 373.150,76.389 372.666,76.192 372.075 C 75.995 371.484,76.583 371.000,77.500 371.000 C 78.417 371.000,79.005 371.484,78.808 372.075 M121.150 372.500 C 121.150 373.022,120.666 373.611,120.075 373.808 C 119.484 374.005,119.000 373.417,119.000 372.500 C 119.000 371.583,119.484 370.995,120.075 371.192 C 120.666 371.389,121.150 371.978,121.150 372.500 " stroke="none" fill="#000000" fill-rule="evenodd"></path></g></svg>