<svg id="svg" version="1.1" width="400" height="400" xmlns="http://www.w3.org/2000/svg" xmlns:xlink="http://www.w3.org/1999/xlink" style="display: block;"><g id="svgg"><path id="path0" d="M0.000 77.992 L 0.000 100.000 61.020 100.000 L 122.039 100.000 121.770 78.250 L 121.500 56.500 60.750 56.242 L 0.000 55.985 0.000 77.992 M139.674 56.659 C 139.303 57.030,139.000 66.933,139.000 78.667 L 139.000 100.000 200.020 100.000 L 261.039 100.000 260.770 78.250 L 260.500 56.500 200.424 56.242 C 167.383 56.101,140.045 56.288,139.674 56.659 M278.667 56.667 C 278.300 57.033,278.000 66.933,278.000 78.667 L 278.000 100.000 339.000 100.000 L 400.000 100.000 400.000 78.000 L 400.000 56.000 339.667 56.000 C 306.483 56.000,279.033 56.300,278.667 56.667 M70.674 117.659 C 70.304 118.030,70.000 127.933,70.000 139.667 L 70.000 161.000 130.520 161.000 L 191.039 161.000 190.770 139.250 L 190.500 117.500 130.924 117.242 C 98.158 117.100,71.045 117.288,70.674 117.659 M209.674 117.659 C 209.304 118.030,209.000 127.933,209.000 139.667 L 209.000 161.000 269.520 161.000 L 330.039 161.000 329.770 139.250 L 329.500 117.500 269.924 117.242 C 237.158 117.100,210.045 117.288,209.674 117.659 M-0.000 200.000 L -0.000 222.015 60.750 221.758 L 121.500 221.500 121.500 200.000 L 121.500 178.500 60.750 178.242 L 0.000 177.985 -0.000 200.000 M139.000 200.000 L 139.000 222.000 200.000 222.000 L 261.000 222.000 261.000 200.000 L 261.000 178.000 200.000 178.000 L 139.000 178.000 139.000 200.000 M278.447 179.277 C 278.178 179.979,278.079 189.767,278.229 201.027 L 278.500 221.500 339.250 221.758 L 400.000 222.015 400.000 200.008 L 400.000 178.000 339.469 178.000 C 291.283 178.000,278.837 178.260,278.447 179.277 M70.000 260.977 L 70.000 282.955 130.250 282.727 L 190.500 282.500 190.770 260.750 L 191.039 239.000 130.520 239.000 L 70.000 239.000 70.000 260.977 M209.230 260.750 L 209.500 282.500 269.500 282.500 L 329.500 282.500 329.770 260.750 L 330.039 239.000 269.500 239.000 L 208.961 239.000 209.230 260.750 M-0.000 322.008 L -0.000 344.015 60.750 343.758 L 121.500 343.500 121.770 321.750 L 122.039 300.000 61.020 300.000 L 0.000 300.000 -0.000 322.008 M139.230 321.750 L 139.500 343.500 200.000 343.500 L 260.500 343.500 260.770 321.750 L 261.039 300.000 200.000 300.000 L 138.961 300.000 139.230 321.750 M278.230 321.750 L 278.500 343.500 339.250 343.758 L 400.000 344.015 400.000 322.008 L 400.000 300.000 338.980 300.000 L 277.961 300.000 278.230 321.750 " stroke="none" fill="#000000" fill-rule="evenodd"></path></g></svg>