<svg xmlns="http://www.w3.org/2000/svg" viewBox="0 0 48.00379 48"><defs><style>.cls-1{fill:black;}</style></defs><title>Asset 962</title><g id="Layer_2" data-name="Layer 2"><g id="Icons"><circle class="cls-1" cx="13.00385" cy="4" r="4"/><path class="cls-1" d="M39.21521,33.4267a1.8225,1.8225,0,0,0,2.5774,0l5.63189-5.49024a1.75722,1.75722,0,0,0,.25061-2.26446,1.66709,1.66709,0,0,0-2.51623-.18384l-3.155,2.84668V15.69177a1.50833,1.50833,0,1,0-3,0V28.33484l-3.155-2.84668a1.66663,1.66663,0,1,0-2.35675,2.35718Z"/><path class="cls-1" d="M46.99189,45.3c-1.21-.39-2.41-.73-3.61-1.04a78.444,78.444,0,0,0-25.38-2v-27a7.42871,7.42871,0,0,1,4,6.74,2,2,0,0,0,4,0c0-6.84-5.59-12-13-12s-13,5.16-13,12a2,2,0,0,0,4,0,7.42869,7.42869,0,0,1,4-6.74V43.61c-1.16.22-2.18.44-3.08.65-2.29.53-3.69.97-3.91,1.04a1.44138,1.44138,0,0,0-1.01,1.22v.03a1.39617,1.39617,0,0,0,.08.53,1.45363,1.45363,0,0,0,1.17.92h45.44a1.45611,1.45611,0,0,0,1.23-.92A1.38181,1.38181,0,0,0,46.99189,45.3ZM12.0019,31h2V42.68c-.95.11-1.74.21-2,.25Z"/></g></g></svg>